<svg width="88" height="88" viewBox="0 0 88 88" fill="none" xmlns="http://www.w3.org/2000/svg">
<path fill-rule="evenodd" clip-rule="evenodd" d="M13 0C5.8203 0 0 5.82032 0 13V74.8336C0 82.0133 5.82032 87.8336 13 87.8336H74.8336C82.0133 87.8336 87.8336 82.0133 87.8336 74.8336V13C87.8336 5.8203 82.0133 0 74.8336 0H13ZM40.0657 28.1687H36.5524V52.2484H40.0657V49.8991C41.7038 51.361 43.8587 52.2484 46.2171 52.2484C49.5785 52.2484 52.5265 50.4583 54.1616 47.7869C53.4224 46.7772 52.7307 45.717 52.0425 44.6621L52.0424 44.662L52.019 44.6261L51.8366 44.3495C51.2136 46.866 48.9372 48.7321 46.2171 48.7321C43.0411 48.7321 40.4669 46.1426 40.4669 42.9545C40.4669 39.7663 43.0411 37.1921 46.2171 37.1921H46.2384V37.183C49.4751 37.1769 51.5297 40.3256 53.645 43.5684C56.4289 47.8385 59.304 52.2424 65.2639 52.2424H65.2852C70.3941 52.2424 74.5518 48.0817 74.5518 42.9575C74.5518 37.8334 70.3941 33.6666 65.2852 33.6666C61.6685 33.6666 58.529 35.7363 56.9881 38.7512C57.3391 39.2675 57.6836 39.7925 58.0289 40.3188L58.2129 40.5991L58.3679 40.8356C58.7449 41.4111 59.1227 41.9879 59.5076 42.5412C59.7204 39.5475 62.2216 37.18 65.2852 37.18C68.3487 37.18 71.0354 39.7694 71.0354 42.9575C71.0354 46.1457 68.4612 48.7169 65.2852 48.7169H65.2639C61.1974 48.7169 58.8572 45.1336 56.5869 41.6567C53.9428 37.6024 51.3747 33.6666 46.2384 33.6757V33.6666H46.2171C43.8587 33.6666 41.7038 34.5541 40.0657 36.0129V28.1687ZM52.0403 72.1614C50.4386 73.5747 48.2017 74.377 45.9709 74.377V74.3801C40.9653 74.3801 36.6496 70.3531 36.6496 65.0345C36.6496 59.7158 40.9532 55.6888 45.9557 55.6888C48.1014 55.6888 50.2319 56.4304 51.8214 57.7312L49.849 60.664C48.9342 59.7888 47.4601 59.2052 45.9557 59.2052C42.88 59.2052 40.166 61.6457 40.166 65.0345C40.166 68.4232 42.8952 70.8637 45.9557 70.8637C47.4753 70.8637 48.9646 70.2498 49.9098 69.3593L52.0403 72.1614ZM73.1386 73.7844V71.7755H73.1446V64.4996C73.1446 61.3114 75.7189 58.722 78.8949 58.722C79.1441 58.722 79.3902 58.7372 79.6334 58.7676C80.1136 57.9622 80.6941 57.2176 81.3566 56.5581C81.621 56.2936 81.8976 56.0444 82.1863 55.8074C81.1621 55.4183 80.0498 55.2056 78.8918 55.2056C73.9166 55.2056 69.841 59.1657 69.6343 64.1014H69.6252V73.7844H73.1386ZM10.0199 73.7844V71.7755H10.026V64.4996C10.026 61.3114 12.6002 58.722 15.7762 58.722C16.0254 58.722 16.2716 58.7372 16.5148 58.7676C16.995 57.9622 17.5754 57.2176 18.238 56.5581C18.5024 56.2936 18.779 56.0444 19.0677 55.8074C18.0435 55.4183 16.9311 55.2056 15.7732 55.2056C10.798 55.2056 6.72237 59.1657 6.51571 64.1014H6.50659V73.7844H10.0199ZM35.4218 64.1014H35.4248L35.4218 64.0984V64.1014ZM35.4157 64.1014H35.4218V73.7813H31.9084V71.7724C30.328 73.0307 28.3282 73.7813 26.1582 73.7813C21.025 73.7813 16.8521 69.6146 16.8521 64.4965C16.8521 59.3785 21.183 55.2056 26.1582 55.2056C31.1334 55.2056 35.209 59.1657 35.4157 64.1014ZM20.3715 64.4996C20.3715 67.6847 22.9609 70.2589 26.1613 70.2589C29.3372 70.2589 31.9115 67.6877 31.9115 64.4996C31.9115 61.3114 29.3616 58.722 26.1613 58.722C22.9609 58.722 20.3715 61.3144 20.3715 64.4996ZM60.0577 55.7466C65.0871 55.7466 68.269 59.8577 68.2697 64.3339C68.2696 65.1811 68.1359 65.8493 67.9172 66.4599L67.8625 66.4447V66.4599H54.7877C55.3864 69.0888 57.5564 70.885 60.1945 70.885C61.5348 70.885 63.258 70.3774 64.6561 69.0584L67.0297 71.4138C65.118 73.5048 62.3341 74.3223 60.1185 74.3223C55.1494 74.3223 51.2105 70.4078 51.2105 65.0466C51.2105 59.6854 55.0278 55.7466 60.0577 55.7466ZM64.8445 63.6911C64.489 61.169 62.8453 59.1725 60.0744 59.1718C57.4098 59.1725 55.2648 61.008 54.7421 63.6911H64.8445ZM8.41523 81.5466C8.44866 81.583 8.48817 81.5982 8.53983 81.5982C8.5915 81.5982 8.63404 81.58 8.66748 81.5466C8.70395 81.5101 8.71915 81.4706 8.71915 81.4189V79.1121C8.71915 79.0605 8.70091 79.0179 8.66748 78.9845C8.63404 78.9511 8.58846 78.9359 8.53983 78.9359C8.49121 78.9359 8.44866 78.9511 8.41523 78.9845C8.37875 79.0179 8.36355 79.0605 8.36355 79.1121V81.4189C8.36355 81.4706 8.38179 81.5131 8.41523 81.5466ZM6.4458 81.5648C6.57953 81.6104 6.70718 81.6438 6.85306 81.6438C6.97463 81.6438 7.09316 81.6286 7.20865 81.5952C7.32414 81.5618 7.42443 81.5131 7.51561 81.4493C7.60374 81.3855 7.67669 81.3065 7.72836 81.2092C7.78002 81.115 7.80738 81.0025 7.80738 80.8719C7.80738 80.647 7.73443 80.4646 7.58247 80.3278C7.43051 80.188 7.22081 80.106 6.95032 80.0786C6.77404 80.0604 6.63728 80.03 6.54306 79.9844C6.44884 79.9388 6.38502 79.8841 6.34855 79.8233C6.31511 79.7595 6.29688 79.6926 6.29688 79.6258C6.29688 79.4921 6.35463 79.3918 6.46708 79.3279C6.57953 79.2641 6.72237 79.2337 6.88953 79.2337C6.98374 79.2337 7.0658 79.2489 7.13875 79.2732C7.21169 79.2975 7.27248 79.334 7.32414 79.3796C7.37581 79.4252 7.4214 79.4799 7.45787 79.5468C7.48218 79.5893 7.52169 79.6167 7.57032 79.6349C7.61895 79.6531 7.66757 79.647 7.71012 79.6197C7.74963 79.5923 7.77091 79.5589 7.77699 79.5133C7.78306 79.4677 7.77091 79.4221 7.73747 79.3705C7.68277 79.2763 7.61286 79.1942 7.53688 79.1273C7.4609 79.0574 7.36973 79.0058 7.2664 78.9663C7.16306 78.9268 7.04149 78.9085 6.90169 78.9085C6.72845 78.9085 6.56738 78.9359 6.42149 78.9906C6.27561 79.0453 6.16316 79.1243 6.07806 79.2276C5.996 79.334 5.95345 79.4586 5.95345 79.6106C5.95345 79.8142 6.03551 79.9844 6.19658 80.1242C6.35766 80.264 6.57953 80.3461 6.86218 80.3734C7.07796 80.3947 7.23296 80.4524 7.32718 80.5497C7.42139 80.6439 7.47002 80.7503 7.47002 80.8719C7.47002 80.9661 7.43963 81.0481 7.38492 81.112C7.33022 81.1758 7.25424 81.2274 7.16307 81.2609C7.07189 81.2943 6.97159 81.3125 6.86218 81.3125C6.76492 81.3125 6.67071 81.2973 6.58257 81.267C6.49443 81.2366 6.41845 81.2001 6.35766 81.1515C6.29688 81.1028 6.25129 81.0481 6.22394 80.9934C6.20266 80.9509 6.17227 80.9174 6.13276 80.8962C6.09325 80.8779 6.05375 80.8688 6.0112 80.8779C5.95345 80.8901 5.91394 80.9144 5.88963 80.9569C5.86835 80.9995 5.86835 81.042 5.88963 81.0907C5.93522 81.197 6.00511 81.2913 6.10237 81.3733C6.19962 81.4554 6.31208 81.5192 6.4458 81.5648ZM59.9058 81.5466C59.9392 81.583 59.9787 81.5982 60.0304 81.5982H61.5713C61.626 81.5982 61.6655 81.583 61.6989 81.5526C61.7323 81.5222 61.7476 81.4797 61.7476 81.4311C61.7476 81.3824 61.7293 81.346 61.6989 81.3156C61.6655 81.2852 61.6229 81.27 61.5713 81.27H60.2067V80.419H61.1853C61.2369 80.419 61.2765 80.4038 61.3099 80.3734C61.3433 80.343 61.3585 80.3005 61.3585 80.2549C61.3585 80.2093 61.3403 80.1698 61.3099 80.1394C61.2795 80.109 61.2369 80.0938 61.1853 80.0938H60.2067V79.2641H61.5713C61.626 79.2641 61.6655 79.2489 61.6989 79.2185C61.7323 79.1912 61.7476 79.1517 61.7476 79.103C61.7476 79.0514 61.7293 79.0118 61.6989 78.9815C61.6655 78.9511 61.6229 78.9359 61.5713 78.9359H60.0304C59.9818 78.9359 59.9392 78.9511 59.9058 78.9845C59.8693 79.0179 59.8541 79.0605 59.8541 79.1121V81.4189C59.8541 81.4706 59.8723 81.5131 59.9058 81.5466ZM57.8816 81.5283C58.0427 81.5952 58.216 81.6317 58.3983 81.6317H58.4044C58.5594 81.6317 58.7053 81.6073 58.8451 81.5557C58.9849 81.504 59.1186 81.4311 59.2402 81.3338C59.2615 81.3186 59.2736 81.2973 59.2827 81.2761C59.2918 81.2548 59.2949 81.2305 59.2949 81.2092C59.2949 81.1575 59.2797 81.118 59.2523 81.0907C59.225 81.0603 59.1916 81.042 59.152 81.042C59.1125 81.039 59.073 81.0512 59.0305 81.0816C58.9363 81.1515 58.836 81.2062 58.7326 81.2457C58.6293 81.2882 58.5199 81.3065 58.4044 81.3065C58.2707 81.3065 58.1461 81.2791 58.0275 81.2274C57.909 81.1758 57.8057 81.1028 57.7145 81.0056C57.6233 80.9114 57.5565 80.8019 57.5048 80.6743C57.4531 80.5467 57.4288 80.4099 57.4288 80.267C57.4288 80.1242 57.4531 79.9874 57.5048 79.8628C57.5565 79.7382 57.6233 79.6288 57.7145 79.5315C57.8057 79.4373 57.9121 79.3614 58.0275 79.3066C58.143 79.2519 58.2707 79.2246 58.4044 79.2246C58.5503 79.2246 58.6688 79.2428 58.76 79.2823C58.8512 79.3219 58.9363 79.3766 59.0214 79.4495C59.0609 79.4829 59.1034 79.4951 59.146 79.4921C59.1885 79.489 59.225 79.4708 59.2554 79.4434C59.2858 79.4161 59.301 79.3796 59.301 79.337C59.301 79.3188 59.2979 79.3006 59.2979 79.2854C59.2949 79.2702 59.2858 79.255 59.2767 79.2398C59.2675 79.2246 59.2523 79.2094 59.2341 79.1972C59.1065 79.0909 58.9788 79.0179 58.8542 78.9723C58.7266 78.9268 58.5776 78.9055 58.4014 78.9055C58.2129 78.9055 58.0427 78.9389 57.8816 79.0118C57.7206 79.0848 57.5808 79.179 57.4622 79.3036C57.3407 79.4252 57.2495 79.5711 57.1826 79.7352C57.1158 79.8963 57.0823 80.0756 57.0823 80.267C57.0823 80.4585 57.1158 80.6409 57.1826 80.805C57.2495 80.9721 57.3437 81.115 57.4622 81.2396C57.5808 81.3642 57.7236 81.4584 57.8816 81.5283ZM56.5565 81.577C56.5839 81.5921 56.6112 81.5982 56.6447 81.5982C56.7176 81.5982 56.7693 81.5678 56.7997 81.5101C56.8301 81.4523 56.824 81.3916 56.7814 81.3247L56.2617 80.4859L56.2982 80.4676C56.4319 80.3977 56.5353 80.3066 56.6082 80.185C56.6812 80.0634 56.7176 79.9267 56.7176 79.7717C56.7176 79.6075 56.6842 79.4617 56.6082 79.337C56.5322 79.2124 56.4289 79.1121 56.2982 79.0422C56.1675 78.9723 56.0156 78.9359 55.8454 78.9359H55.2315C55.1828 78.9359 55.1403 78.9511 55.1068 78.9845C55.0704 79.0179 55.0552 79.0605 55.0552 79.1121V81.4189C55.0552 81.4706 55.0734 81.5131 55.1068 81.5466C55.1403 81.583 55.1798 81.5982 55.2315 81.5982C55.2831 81.5982 55.3257 81.58 55.3591 81.5466C55.3925 81.5101 55.4077 81.4706 55.4077 81.4189V80.571H55.8454H55.9062L56.4897 81.5131C56.5079 81.5405 56.5292 81.5648 56.5565 81.577ZM55.8423 80.2458H55.4047V79.2702H55.8423C55.9487 79.2702 56.0399 79.2915 56.1189 79.334C56.201 79.3766 56.2617 79.4373 56.3073 79.5133C56.3529 79.5893 56.3742 79.6774 56.3742 79.7777C56.3742 79.8689 56.3529 79.951 56.3073 80.0209C56.2617 80.0908 56.1979 80.1485 56.1189 80.188C56.0399 80.2275 55.9487 80.2458 55.8423 80.2458ZM52.7059 81.5314C52.8745 81.6127 53.0639 81.6522 53.2802 81.6529C53.4875 81.6522 53.6739 81.6126 53.8364 81.5314C54.0006 81.4493 54.1282 81.3369 54.2194 81.194C54.3136 81.0512 54.3592 80.887 54.3592 80.7047V79.1152C54.3592 79.0635 54.341 79.021 54.3106 78.9875C54.2802 78.9541 54.2376 78.9389 54.186 78.9389C54.1373 78.9389 54.0948 78.9541 54.0613 78.9875C54.0249 79.021 54.0097 79.0635 54.0097 79.1152V80.7047C54.0097 80.8263 53.9762 80.9357 53.9155 81.0299C53.8547 81.1241 53.7665 81.2001 53.6571 81.2518C53.5477 81.3034 53.4231 81.3308 53.2772 81.3308C53.1313 81.3308 53.0007 81.3034 52.8852 81.2518C52.7727 81.197 52.6815 81.1241 52.6177 81.0299C52.5539 80.9357 52.5205 80.8263 52.5205 80.7047V79.1152C52.5205 79.0635 52.5053 79.021 52.4718 78.9875C52.4384 78.9541 52.3959 78.9389 52.3442 78.9389C52.2956 78.9389 52.253 78.9541 52.2196 78.9875C52.1831 79.021 52.1679 79.0635 52.1679 79.1152V80.7047C52.1679 80.887 52.2165 81.0512 52.3107 81.194C52.405 81.3369 52.5357 81.4493 52.7059 81.5314ZM49.7122 81.5314C49.8794 81.5982 50.0617 81.6317 50.2623 81.6317C50.4629 81.6317 50.6453 81.5982 50.8094 81.5314C50.9705 81.4645 51.1133 81.3703 51.2349 81.2487C51.3564 81.1302 51.4476 80.9843 51.5145 80.8171C51.5813 80.65 51.6148 80.4646 51.6148 80.267C51.6148 80.0695 51.5813 79.8871 51.5145 79.72C51.4476 79.5528 51.3564 79.41 51.2349 79.2884C51.1163 79.1668 50.9735 79.0726 50.8094 79.0058C50.6453 78.9389 50.4629 78.9055 50.2623 78.9055C50.0617 78.9055 49.8763 78.9389 49.7122 79.0058C49.5451 79.0726 49.4022 79.1668 49.2837 79.2884C49.1652 79.41 49.074 79.5559 49.0071 79.72C48.9402 79.8841 48.9068 80.0665 48.9068 80.267C48.9068 80.4676 48.9433 80.65 49.0071 80.8171C49.0709 80.9843 49.1652 81.1272 49.2837 81.2487C49.4022 81.3703 49.5481 81.4645 49.7122 81.5314ZM50.6696 81.2335C50.545 81.2852 50.4112 81.3125 50.2623 81.3125C50.1164 81.3125 49.9797 81.2852 49.8551 81.2335C49.7335 81.1788 49.6271 81.1059 49.5359 81.0117C49.4448 80.9174 49.3779 80.808 49.3262 80.6804C49.2746 80.5527 49.2503 80.416 49.2503 80.267C49.2503 80.1181 49.2746 79.9814 49.3262 79.8537C49.3779 79.7291 49.4448 79.6167 49.5359 79.5224C49.6241 79.4282 49.7305 79.3553 49.8551 79.3036C49.9797 79.2519 50.1164 79.2246 50.2623 79.2246C50.4082 79.2246 50.545 79.2519 50.6696 79.3036C50.7942 79.3553 50.9006 79.4282 50.9917 79.5224C51.0829 79.6167 51.1528 79.7261 51.2014 79.8537C51.2501 79.9814 51.2744 80.1181 51.2744 80.267C51.2744 80.416 51.2501 80.5527 51.2014 80.6804C51.1528 80.805 51.0829 80.9174 50.9917 81.0117C50.9006 81.1059 50.7942 81.1819 50.6696 81.2335ZM47.1167 81.5648C47.2504 81.6104 47.3781 81.6438 47.524 81.6438C47.6455 81.6438 47.7641 81.6286 47.8796 81.5952C47.9951 81.5618 48.0954 81.5131 48.1865 81.4493C48.2747 81.3855 48.3476 81.3065 48.3993 81.2092C48.4509 81.115 48.4783 81.0025 48.4783 80.8719C48.4783 80.647 48.4023 80.4646 48.2503 80.3278C48.0984 80.188 47.8887 80.106 47.6182 80.0786C47.4419 80.0604 47.3051 80.03 47.2109 79.9844C47.1167 79.9388 47.0529 79.8841 47.0164 79.8233C46.983 79.7595 46.9648 79.6926 46.9648 79.6258C46.9648 79.4921 47.0225 79.3918 47.135 79.3279C47.2474 79.2641 47.3903 79.2337 47.5574 79.2337C47.6516 79.2337 47.7337 79.2489 47.8066 79.2732C47.8796 79.2975 47.9403 79.334 47.992 79.3796C48.0437 79.4252 48.0893 79.4799 48.1257 79.5468C48.1501 79.5893 48.1865 79.6197 48.2382 79.6349C48.2868 79.6531 48.3355 79.647 48.378 79.6197C48.4175 79.5923 48.4388 79.5589 48.4449 79.5133C48.4509 79.4677 48.4388 79.4221 48.4053 79.3705C48.3506 79.2763 48.2807 79.1942 48.2048 79.1273C48.1288 79.0574 48.0376 79.0058 47.9343 78.9663C47.8309 78.9268 47.7094 78.9085 47.5696 78.9085C47.3933 78.9085 47.2352 78.9359 47.0894 78.9906C46.9435 79.0453 46.831 79.1243 46.7459 79.2276C46.6639 79.334 46.6213 79.4586 46.6213 79.6106C46.6213 79.8142 46.7034 79.9844 46.8645 80.1242C47.0255 80.264 47.2474 80.3461 47.53 80.3734C47.7458 80.3947 47.9008 80.4524 47.9951 80.5497C48.0893 80.6439 48.1379 80.7503 48.1379 80.8719C48.1379 80.9661 48.1075 81.0481 48.0528 81.112C47.9951 81.1758 47.9221 81.2274 47.8309 81.2609C47.7397 81.2943 47.6395 81.3125 47.53 81.3125C47.4328 81.3125 47.3386 81.2973 47.2504 81.267C47.1623 81.2366 47.0863 81.2001 47.0255 81.1515C46.9648 81.1028 46.9192 81.0481 46.8918 80.9934C46.8705 80.9509 46.8402 80.9174 46.8006 80.8962C46.7611 80.8779 46.7216 80.8688 46.6791 80.8779C46.6213 80.8901 46.5788 80.9144 46.5575 80.9569C46.5362 80.9995 46.5362 81.042 46.5575 81.0907C46.6031 81.197 46.676 81.2913 46.7733 81.3733C46.8705 81.4554 46.986 81.5192 47.1167 81.5648ZM42.9104 81.5466C42.9439 81.583 42.9834 81.5982 43.035 81.5982V81.6013C43.0867 81.6013 43.1292 81.583 43.1627 81.5496C43.1961 81.5131 43.2113 81.4736 43.2113 81.422V79.5619L44.6975 81.5374C44.7127 81.5587 44.734 81.5739 44.7613 81.583C44.7856 81.5952 44.813 81.5982 44.8343 81.5982C44.8859 81.5982 44.9254 81.58 44.9589 81.5466C44.9923 81.5101 45.0075 81.4706 45.0075 81.4189V79.1121C45.0075 79.0605 44.9893 79.0179 44.9589 78.9845C44.9285 78.9511 44.8859 78.9359 44.8343 78.9359C44.7856 78.9359 44.7431 78.9511 44.7097 78.9845C44.6732 79.0179 44.658 79.0605 44.658 79.1121V80.9752L43.1718 78.9997C43.1353 78.9571 43.0897 78.9359 43.035 78.9359C42.9834 78.9359 42.9439 78.9511 42.9104 78.9845C42.8739 79.0179 42.8588 79.0605 42.8588 79.1121V81.4189C42.8588 81.4706 42.877 81.5131 42.9104 81.5466ZM40.5277 81.5466C40.5611 81.583 40.6006 81.5982 40.6523 81.5982H42.1932C42.2448 81.5982 42.2874 81.583 42.3178 81.5526C42.3512 81.5222 42.3664 81.4797 42.3664 81.4311C42.3664 81.3824 42.3512 81.346 42.3178 81.3156C42.2874 81.2852 42.2448 81.27 42.1932 81.27H40.8286V80.419H41.8072C41.8619 80.419 41.9014 80.4038 41.9348 80.3734C41.9683 80.343 41.9835 80.3005 41.9835 80.2549C41.9835 80.2093 41.9683 80.1698 41.9348 80.1394C41.9014 80.109 41.8588 80.0938 41.8072 80.0938H40.8286V79.2641H42.1932C42.2448 79.2641 42.2874 79.2489 42.3178 79.2185C42.3512 79.1912 42.3664 79.1517 42.3664 79.103C42.3664 79.0514 42.3512 79.0118 42.3178 78.9815C42.2874 78.9511 42.2448 78.9359 42.1932 78.9359H40.6523C40.6036 78.9359 40.5611 78.9511 40.5277 78.9845C40.4912 79.0179 40.476 79.0605 40.476 79.1121V81.4189C40.476 81.4706 40.4942 81.5131 40.5277 81.5466ZM38.4063 81.5466C38.4397 81.583 38.4762 81.6013 38.5279 81.6013C38.5795 81.6013 38.6221 81.583 38.6555 81.5496C38.692 81.5162 38.7072 81.4736 38.7072 81.422V80.6773H39.2117C39.3819 80.6773 39.5338 80.6409 39.6645 80.5679C39.7983 80.495 39.9016 80.3947 39.9745 80.264C40.0475 80.1333 40.0839 79.9935 40.0839 79.8203C40.0839 79.6471 40.0475 79.4951 39.9745 79.3614C39.8986 79.2276 39.7952 79.1243 39.6645 79.0483C39.5338 78.9723 39.3819 78.9359 39.2117 78.9359H38.5309C38.4823 78.9359 38.4397 78.9511 38.4063 78.9845C38.3698 79.0179 38.3546 79.0605 38.3546 79.1121V81.4189C38.3546 81.4706 38.3729 81.5131 38.4063 81.5466ZM39.2117 80.3461H38.7072V79.258H39.2117C39.3181 79.258 39.4092 79.2823 39.4883 79.331C39.5703 79.3796 39.6311 79.4465 39.6767 79.5285C39.7192 79.6106 39.7436 79.7078 39.7436 79.8172C39.7436 79.9206 39.7223 80.0118 39.6767 80.0908C39.6311 80.1728 39.5673 80.2336 39.4883 80.2792C39.4092 80.3248 39.3181 80.3461 39.2117 80.3461ZM35.8959 81.5314C36.06 81.5982 36.2424 81.6317 36.443 81.6317C36.6435 81.6317 36.8259 81.5982 36.99 81.5314C37.1541 81.4645 37.297 81.3703 37.4185 81.2487C37.5401 81.1302 37.6313 80.9843 37.6982 80.8171C37.765 80.65 37.7984 80.4646 37.7984 80.267C37.7984 80.0695 37.762 79.8841 37.6982 79.72C37.6313 79.5528 37.5401 79.41 37.4185 79.2884C37.297 79.1668 37.1541 79.0726 36.99 79.0058C36.8259 78.9389 36.6405 78.9055 36.443 78.9055C36.2454 78.9055 36.06 78.9389 35.8959 79.0058C35.7287 79.0726 35.5859 79.1668 35.4674 79.2884C35.3488 79.41 35.2577 79.5559 35.1908 79.72C35.1239 79.8841 35.0905 80.0665 35.0905 80.267C35.0905 80.4676 35.127 80.65 35.1908 80.8171C35.2546 80.9843 35.3488 81.1272 35.4674 81.2487C35.5859 81.3703 35.7287 81.4645 35.8959 81.5314ZM36.8502 81.2335C36.7256 81.2852 36.5919 81.3125 36.443 81.3125C36.2971 81.3125 36.1603 81.2852 36.0357 81.2335C35.9141 81.1788 35.8078 81.1059 35.7166 81.0117C35.6254 80.9174 35.5585 80.808 35.5069 80.6804C35.4552 80.5527 35.4309 80.416 35.4309 80.267C35.4309 80.1181 35.4552 79.9814 35.5069 79.8537C35.5585 79.7291 35.6254 79.6167 35.7166 79.5224C35.8047 79.4282 35.9111 79.3553 36.0357 79.3036C36.1603 79.2519 36.2971 79.2246 36.443 79.2246C36.5888 79.2246 36.7256 79.2519 36.8502 79.3036C36.9748 79.3553 37.0812 79.4282 37.1724 79.5224C37.2635 79.6167 37.3334 79.7261 37.3821 79.8537C37.4307 79.9814 37.455 80.1181 37.455 80.267C37.455 80.416 37.4307 80.5527 37.3821 80.6804C37.3334 80.805 37.2635 80.9174 37.1724 81.0117C37.0812 81.1059 36.9748 81.1819 36.8502 81.2335ZM32.4281 81.7745C32.4613 81.8257 32.5094 81.8501 32.5724 81.8505C32.6053 81.8502 32.6352 81.8412 32.6652 81.8262C32.6956 81.8079 32.7199 81.7836 32.7321 81.7471L33.7593 79.182C33.7836 79.1182 33.7806 79.0605 33.7441 79.0118C33.7077 78.9632 33.659 78.9389 33.6013 78.9389C33.5648 78.9389 33.5344 78.948 33.504 78.9663C33.4767 78.9875 33.4524 79.0118 33.4402 79.0422L32.416 81.6073C32.3917 81.6681 32.3947 81.7228 32.4281 81.7745ZM30.0272 81.5466C30.0606 81.583 30.1001 81.5982 30.1518 81.5982C30.2004 81.5982 30.2429 81.58 30.2764 81.5466C30.3128 81.5101 30.328 81.4706 30.328 81.4189V79.2611H31.0605C31.1091 79.2611 31.1486 79.2459 31.179 79.2155C31.2094 79.1851 31.2246 79.1456 31.2246 79.0969C31.2246 79.0483 31.2094 79.0088 31.179 78.9784C31.1486 78.948 31.1091 78.9328 31.0605 78.9328H29.2369C29.1914 78.9328 29.1518 78.948 29.1215 78.9784C29.0911 79.0088 29.0759 79.0483 29.0759 79.0969C29.0759 79.1456 29.0911 79.1851 29.1215 79.2155C29.1488 79.2459 29.1883 79.2611 29.2369 79.2611H29.9755V81.4189C29.9755 81.4706 29.9937 81.5131 30.0272 81.5466ZM27.5836 81.5648C27.7173 81.6104 27.8419 81.6438 27.9878 81.6438C28.1094 81.6438 28.2279 81.6286 28.3434 81.5952C28.4589 81.5618 28.5592 81.5131 28.6504 81.4493C28.7385 81.3855 28.8115 81.3065 28.8631 81.2092C28.9178 81.115 28.9452 81.0025 28.9452 80.8719C28.9452 80.647 28.8722 80.4646 28.7203 80.3278C28.5683 80.188 28.3586 80.106 28.0881 80.0786C27.9119 80.0604 27.7751 80.03 27.6809 79.9844C27.5867 79.9388 27.5228 79.8841 27.4864 79.8233C27.4529 79.7595 27.4347 79.6926 27.4347 79.6258C27.4347 79.4921 27.4924 79.3918 27.6049 79.3279C27.7173 79.2641 27.8602 79.2337 28.0273 79.2337C28.1216 79.2337 28.2036 79.2489 28.2766 79.2732C28.3495 79.2975 28.4103 79.334 28.462 79.3796C28.5136 79.4252 28.5592 79.4799 28.5957 79.5468C28.62 79.5893 28.6565 79.6197 28.7081 79.6349C28.7568 79.6531 28.8054 79.647 28.8479 79.6197C28.8874 79.5923 28.9087 79.5589 28.9148 79.5133C28.9209 79.4677 28.9087 79.4221 28.8753 79.3705C28.8206 79.2763 28.7507 79.1942 28.6747 79.1273C28.5987 79.0574 28.5075 79.0058 28.4042 78.9663C28.3009 78.9268 28.1793 78.9085 28.0395 78.9085C27.8663 78.9085 27.7052 78.9359 27.5593 78.9906C27.4134 79.0453 27.301 79.1243 27.2159 79.2276C27.1338 79.334 27.0913 79.4586 27.0913 79.6106C27.0913 79.8142 27.1733 79.9844 27.3344 80.1242C27.4955 80.264 27.7173 80.3461 28 80.3734C28.2158 80.3947 28.3708 80.4524 28.465 80.5497C28.5592 80.6439 28.6078 80.7503 28.6078 80.8719C28.6078 80.9661 28.5774 81.0481 28.5227 81.112C28.468 81.1758 28.392 81.2274 28.3009 81.2609C28.2097 81.2943 28.1094 81.3125 28 81.3125C27.9027 81.3125 27.8085 81.2973 27.7204 81.267C27.6322 81.2366 27.5563 81.2001 27.4955 81.1515C27.4347 81.1028 27.3891 81.0481 27.3618 80.9934C27.3405 80.9509 27.3101 80.9174 27.2706 80.8962C27.2311 80.8779 27.1916 80.8688 27.149 80.8779C27.0913 80.8901 27.0487 80.9144 27.0274 80.9569C27.0062 80.9995 27.0062 81.042 27.0274 81.0907C27.073 81.197 27.1429 81.2913 27.2402 81.3733C27.3374 81.4554 27.4529 81.5192 27.5836 81.5648ZM26.1157 80.7169H25.131L25.6275 79.5047L26.1157 80.7169ZM25.0124 81.0117H26.2342L26.4257 81.4888C26.4409 81.5222 26.4621 81.5466 26.4925 81.5678C26.5229 81.5891 26.5564 81.5982 26.5898 81.5982C26.6567 81.5982 26.7053 81.5739 26.7387 81.5222C26.7721 81.4736 26.7752 81.4159 26.7509 81.3521L25.7905 79.0574C25.7601 78.9784 25.7054 78.9389 25.6233 78.9389C25.5473 78.9389 25.4896 78.9784 25.4562 79.0574L24.4988 81.3429C24.4714 81.4037 24.4745 81.4615 24.5079 81.5162C24.5413 81.5709 24.59 81.5982 24.6538 81.5982C24.6872 81.5982 24.7176 81.5891 24.748 81.5709C24.7784 81.5526 24.8027 81.5253 24.8179 81.4888L25.0124 81.0117ZM22.8759 81.5466C22.9093 81.583 22.9488 81.6013 23.0005 81.6013C23.0491 81.6013 23.0916 81.583 23.1251 81.5496C23.1615 81.5131 23.1767 81.4736 23.1767 81.422V80.419H24.1554C24.207 80.419 24.2496 80.4038 24.28 80.3734C24.3134 80.343 24.3286 80.3005 24.3286 80.2549C24.3286 80.2093 24.3134 80.1698 24.28 80.1394C24.2496 80.109 24.207 80.0938 24.1554 80.0938H23.1767V79.2641H24.5414C24.593 79.2641 24.6356 79.2489 24.666 79.2185C24.6994 79.1912 24.7146 79.1517 24.7146 79.103C24.7146 79.0514 24.6994 79.0118 24.666 78.9815C24.6356 78.9511 24.593 78.9359 24.5414 78.9359H23.0005C22.9518 78.9359 22.9093 78.9511 22.8759 78.9845C22.8394 79.0179 22.8242 79.0605 22.8242 79.1121V81.4189C22.8242 81.4706 22.8424 81.5131 22.8759 81.5466ZM20.253 81.7745C20.2861 81.8257 20.3342 81.8501 20.3972 81.8505C20.4301 81.8502 20.4601 81.8412 20.4901 81.8262C20.5205 81.8079 20.5448 81.7836 20.5569 81.7471L21.5842 79.182C21.6085 79.1182 21.6055 79.0605 21.569 79.0118C21.5325 78.9632 21.4839 78.9389 21.4261 78.9389C21.3897 78.9389 21.3593 78.948 21.3289 78.9663C21.3015 78.9875 21.2772 79.0118 21.2651 79.0422L20.2409 81.6073C20.2165 81.6681 20.2196 81.7228 20.253 81.7745ZM17.1074 81.5466C17.1408 81.583 17.1803 81.5982 17.232 81.5982H18.7729C18.8276 81.5982 18.8671 81.583 18.9006 81.5526C18.934 81.5222 18.9492 81.4797 18.9492 81.4311C18.9492 81.3824 18.934 81.346 18.9006 81.3156C18.8671 81.2852 18.8246 81.27 18.7729 81.27H17.4083V80.419H18.3869C18.4386 80.419 18.4811 80.4038 18.5115 80.3734C18.545 80.343 18.5602 80.3005 18.5602 80.2549C18.5602 80.2093 18.545 80.1698 18.5115 80.1394C18.4811 80.109 18.4386 80.0938 18.3869 80.0938H17.4083V79.2641H18.7729C18.8276 79.2641 18.8671 79.2489 18.9006 79.2185C18.934 79.1912 18.9492 79.1517 18.9492 79.103C18.9492 79.0514 18.934 79.0118 18.9006 78.9815C18.8671 78.9511 18.8246 78.9359 18.7729 78.9359H17.232C17.1834 78.9359 17.1408 78.9511 17.1074 78.9845C17.0709 79.0179 17.0557 79.0605 17.0557 79.1121V81.4189C17.0557 81.4706 17.074 81.5131 17.1074 81.5466ZM14.9161 81.5466C14.9496 81.583 14.9891 81.5982 15.0407 81.5982H16.4509C16.4996 81.5982 16.5421 81.58 16.5755 81.5466C16.609 81.5101 16.6272 81.4675 16.6272 81.4189C16.6272 81.3703 16.609 81.3277 16.5755 81.2943C16.5421 81.2578 16.5026 81.2426 16.4509 81.2426H15.217V79.1121C15.217 79.0635 15.1988 79.021 15.1653 78.9875C15.1319 78.9541 15.0924 78.9359 15.0407 78.9359C14.9951 78.9359 14.9526 78.9541 14.9192 78.9875C14.8827 79.0179 14.8675 79.0605 14.8675 79.1121V81.4189C14.8675 81.4706 14.8827 81.5131 14.9161 81.5466ZM12.7978 81.5466C12.8312 81.583 12.8738 81.6013 12.9254 81.6013C12.9771 81.6013 13.0196 81.583 13.0531 81.5496C13.0865 81.5162 13.1017 81.4736 13.1017 81.422V80.6773H13.6062C13.7764 80.6773 13.9284 80.6409 14.0591 80.5679C14.1928 80.495 14.2961 80.3947 14.3691 80.264C14.442 80.1333 14.4785 79.9935 14.4785 79.8203C14.4785 79.6471 14.442 79.4951 14.3691 79.3614C14.2931 79.2276 14.1897 79.1243 14.0591 79.0483C13.9284 78.9723 13.7764 78.9359 13.6062 78.9359H12.9224C12.8738 78.9359 12.8312 78.9511 12.7978 78.9845C12.7613 79.0179 12.7461 79.0605 12.7461 79.1121V81.4189C12.7461 81.4706 12.7643 81.5131 12.7978 81.5466ZM13.6032 80.3461H13.0987V79.258H13.6032C13.7095 79.258 13.8007 79.2823 13.8797 79.331C13.9618 79.3796 14.0226 79.4465 14.0682 79.5285C14.1138 79.6106 14.135 79.7078 14.135 79.8172C14.135 79.9206 14.1138 80.0118 14.0682 80.0908C14.0226 80.1728 13.9588 80.2336 13.8797 80.2792C13.8007 80.3248 13.7095 80.3461 13.6032 80.3461ZM9.44856 81.5466C9.48199 81.583 9.51846 81.6013 9.57013 81.6013C9.61875 81.6013 9.6613 81.583 9.69474 81.5496C9.72817 81.5131 9.74641 81.4736 9.74641 81.422V79.7534L10.5639 81.3885C10.5974 81.4584 10.6521 81.4949 10.7281 81.4949C10.7919 81.4949 10.8436 81.4645 10.8831 81.4068L11.7097 79.7225V81.4189C11.7097 81.4706 11.728 81.5131 11.7614 81.5466C11.7948 81.583 11.8343 81.5982 11.886 81.5982C11.9346 81.5982 11.9742 81.58 12.0106 81.5466C12.0441 81.5101 12.0623 81.4706 12.0623 81.4189V79.1121C12.0623 79.0605 12.0441 79.0179 12.0106 78.9845C11.9772 78.9511 11.9377 78.9359 11.886 78.9359C11.8161 78.9359 11.7644 78.9693 11.728 79.0331L10.7426 81.0587L9.7312 79.0331C9.6917 78.9663 9.64003 78.9359 9.57317 78.9359C9.52454 78.9359 9.48199 78.9511 9.44856 78.9845C9.41209 79.0179 9.39689 79.0605 9.39689 79.1121V81.4189C9.39689 81.4706 9.41513 81.5131 9.44856 81.5466ZM10.0199 52.2484V50.2395H10.026V42.9636C10.026 39.7755 12.6002 37.186 15.7762 37.186C16.0254 37.186 16.2716 37.2012 16.5148 37.2316C16.995 36.4262 17.5754 35.6816 18.238 35.0221C18.5024 34.7577 18.779 34.5085 19.0677 34.2714C18.0435 33.8824 16.9311 33.6697 15.7732 33.6697C10.798 33.6697 6.72237 37.6298 6.51571 42.5655H6.50659V52.2484H10.0199ZM35.443 42.9636C35.443 48.0877 31.2854 52.2484 26.1764 52.2484C21.0432 52.2484 16.8703 48.0817 16.8703 42.9636C16.8703 37.8455 21.0675 33.6727 26.1764 33.6727C31.2854 33.6727 35.443 37.8395 35.443 42.9636ZM20.3867 42.9636C20.3867 46.1487 22.9761 48.7229 26.1764 48.7229C29.3524 48.7229 31.9267 46.1517 31.9267 42.9636C31.9267 39.7755 29.3767 37.186 26.1764 37.186C22.9761 37.186 20.3867 39.7785 20.3867 42.9636Z" fill="url(#paint0_linear_1_23)"/>
<defs>
<linearGradient id="paint0_linear_1_23" x1="9.30391" y1="90.9229" x2="98.5432" y2="55.0187" gradientUnits="userSpaceOnUse">
<stop stop-color="#00D1DA"/>
<stop offset="1" stop-color="#FC00FF"/>
</linearGradient>
</defs>
</svg>
