<svg width="210" height="44" viewBox="0 0 210 44" fill="none" xmlns="http://www.w3.org/2000/svg">
<path d="M3.69968 43.1063C3.63371 43.1063 3.57944 43.085 3.53475 43.0403C3.49006 42.9956 3.46665 42.9392 3.46665 42.8743V39.8525C3.46665 39.7844 3.48793 39.729 3.53475 39.6844C3.57944 39.6418 3.63371 39.6205 3.69968 39.6205C3.76564 39.6205 3.8231 39.6418 3.86779 39.6844C3.91248 39.729 3.93376 39.7833 3.93376 39.8525V42.8743C3.93376 42.9403 3.91248 42.9945 3.86779 43.0403C3.82523 43.085 3.76884 43.1063 3.69968 43.1063ZM104.428 4.05653C104.165 4.05653 103.922 4.01184 103.704 3.92353C103.486 3.83522 103.298 3.71072 103.141 3.55006C102.985 3.38939 102.863 3.19999 102.775 2.97974C102.688 2.75949 102.646 2.51689 102.646 2.25407C102.646 1.99126 102.69 1.74866 102.775 1.53054C102.863 1.31241 102.984 1.12195 103.141 0.961284C103.298 0.800616 103.486 0.677189 103.704 0.587811C103.922 0.498433 104.165 0.455872 104.428 0.455872C104.691 0.455872 104.931 0.500561 105.149 0.587811C105.366 0.677189 105.553 0.800616 105.712 0.961284C105.871 1.12195 105.993 1.31135 106.081 1.53054C106.168 1.74866 106.211 1.98913 106.211 2.25407C106.211 2.51902 106.168 2.75949 106.081 2.97974C105.994 3.19999 105.873 3.38939 105.712 3.55006C105.553 3.71072 105.366 3.83415 105.149 3.92353C104.932 4.01291 104.693 4.05653 104.428 4.05653ZM100.826 4.05653C100.617 4.05653 100.429 4.00972 100.267 3.91927C100.102 3.82883 99.9769 3.70115 99.8865 3.53835C99.796 3.37343 99.7492 3.18829 99.7492 2.97974C99.7492 2.91058 99.7726 2.85418 99.8173 2.81162C99.862 2.76906 99.9184 2.74565 99.9833 2.74565C100.052 2.74565 100.109 2.76693 100.151 2.81162C100.196 2.85631 100.217 2.91058 100.217 2.97974C100.217 3.10742 100.243 3.22127 100.297 3.32023C100.349 3.41918 100.421 3.49579 100.512 3.55218C100.603 3.60858 100.709 3.63518 100.829 3.63518C100.949 3.63518 101.056 3.60858 101.148 3.55218C101.241 3.49792 101.313 3.42025 101.365 3.32023C101.418 3.22127 101.445 3.10742 101.445 2.97974V0.737838C101.445 0.668677 101.467 0.612283 101.511 0.569722C101.556 0.527161 101.61 0.503753 101.676 0.503753C101.745 0.503753 101.802 0.525033 101.846 0.569722C101.891 0.612283 101.915 0.668677 101.915 0.737838V2.97974C101.915 3.18829 101.868 3.37662 101.775 3.53835C101.683 3.70008 101.555 3.82883 101.394 3.91927C101.231 4.00972 101.046 4.05653 100.833 4.05653H100.826ZM208.72 3.40535V2.60627H208.099C208.033 2.60627 207.977 2.58711 207.933 2.54774C207.889 2.50838 207.865 2.45837 207.865 2.39878C207.865 2.3392 207.888 2.29025 207.933 2.24982C207.978 2.21151 208.034 2.1913 208.099 2.1913H208.938C209.008 2.1913 209.062 2.21258 209.104 2.25514C209.147 2.29983 209.166 2.35622 209.166 2.42325V3.49898C209.166 3.52771 209.161 3.55857 209.15 3.58623C209.141 3.61496 209.121 3.6405 209.094 3.66604C208.935 3.79797 208.763 3.89586 208.578 3.95971C208.391 4.02355 208.197 4.05653 207.994 4.05653C207.752 4.05653 207.523 4.00972 207.313 3.91927C207.102 3.82883 206.916 3.70115 206.759 3.53835C206.603 3.37556 206.478 3.18403 206.392 2.96591C206.303 2.74778 206.26 2.51157 206.26 2.2562C206.26 2.00084 206.305 1.77101 206.392 1.55395C206.482 1.33688 206.603 1.14749 206.759 0.983628C206.916 0.820832 207.1 0.691021 207.31 0.598451C207.519 0.505881 207.748 0.459064 207.994 0.459064C208.223 0.459064 208.423 0.48992 208.589 0.549506C208.755 0.609091 208.922 0.708046 209.091 0.845305C209.114 0.862329 209.133 0.882546 209.147 0.901698C209.161 0.920851 209.168 0.940003 209.174 0.96022C209.178 0.979372 209.179 1.00278 209.179 1.02938C209.179 1.08577 209.158 1.13366 209.119 1.17302C209.079 1.21133 209.03 1.23261 208.97 1.23474C208.912 1.23687 208.859 1.21771 208.805 1.17622C208.695 1.07939 208.579 1.0081 208.461 0.955963C208.343 0.905954 208.186 0.87829 207.99 0.87829C207.815 0.87829 207.648 0.91553 207.491 0.98682C207.337 1.05811 207.199 1.15706 207.08 1.28262C206.961 1.40817 206.869 1.55395 206.803 1.71993C206.737 1.88592 206.704 2.06468 206.704 2.25195C206.704 2.43921 206.737 2.62329 206.803 2.78821C206.869 2.9542 206.961 3.09997 207.08 3.22766C207.198 3.35321 207.335 3.45217 207.491 3.52133C207.646 3.59049 207.813 3.6256 207.99 3.6256C208.144 3.6256 208.288 3.60007 208.423 3.54793C208.522 3.50962 208.619 3.46068 208.714 3.40109L208.718 3.40535H208.72ZM202.927 4.01291C202.861 4.01291 202.806 3.9895 202.762 3.94481C202.717 3.90012 202.696 3.84373 202.696 3.77882V0.737838C202.696 0.668677 202.717 0.612283 202.762 0.569722C202.804 0.525033 202.861 0.503753 202.927 0.503753C202.998 0.503753 203.059 0.532481 203.106 0.588875L205.064 3.19467V0.737838C205.064 0.668677 205.088 0.612283 205.132 0.569722C205.177 0.525033 205.233 0.503753 205.298 0.503753C205.368 0.503753 205.422 0.525033 205.464 0.569722C205.507 0.614411 205.528 0.668677 205.528 0.737838V3.77882C205.528 3.84479 205.507 3.90118 205.464 3.94481C205.422 3.98843 205.368 4.01291 205.298 4.01291C205.27 4.01291 205.237 4.00759 205.202 3.99376C205.166 3.97992 205.14 3.96077 205.119 3.93417L203.161 1.32837V3.78095C203.161 3.84692 203.139 3.90331 203.095 3.94694C203.05 3.99056 202.996 4.01504 202.927 4.01504V4.01291ZM201.566 4.01291C201.5 4.01291 201.443 3.9895 201.4 3.94481C201.356 3.90012 201.332 3.84373 201.332 3.77882V0.737838C201.332 0.668677 201.353 0.612283 201.4 0.569722C201.444 0.525033 201.501 0.503753 201.566 0.503753C201.635 0.503753 201.691 0.525033 201.734 0.569722C201.779 0.614411 201.8 0.668677 201.8 0.737838V3.77882C201.8 3.84479 201.779 3.90118 201.734 3.94481C201.689 3.98843 201.635 4.01291 201.566 4.01291ZM199.415 4.05653C199.174 4.05653 198.945 4.00972 198.734 3.91927C198.524 3.82883 198.34 3.70115 198.181 3.53835C198.025 3.37343 197.9 3.18403 197.814 2.96591C197.725 2.74778 197.681 2.51157 197.681 2.2562C197.681 2.00084 197.726 1.77101 197.814 1.55395C197.902 1.33688 198.025 1.14536 198.181 0.983628C198.338 0.821896 198.522 0.693149 198.73 0.600579C198.939 0.508009 199.167 0.461192 199.413 0.461192C199.643 0.461192 199.843 0.48992 200.009 0.551634C200.175 0.611219 200.342 0.710174 200.51 0.847433C200.536 0.864457 200.553 0.884674 200.567 0.903826C200.58 0.922979 200.588 0.942131 200.593 0.962348C200.598 0.9815 200.599 1.00491 200.599 1.03151C200.599 1.0879 200.579 1.13578 200.539 1.17302C200.499 1.21027 200.45 1.23155 200.394 1.23474C200.339 1.23793 200.283 1.22091 200.228 1.17834C200.118 1.08365 200.002 1.01023 199.884 0.958091C199.765 0.908082 199.609 0.882546 199.413 0.882546C199.238 0.882546 199.071 0.917659 198.914 0.991076C198.76 1.06237 198.622 1.16132 198.505 1.28688C198.388 1.41243 198.294 1.55927 198.228 1.72419C198.162 1.89018 198.129 2.06893 198.129 2.2562C198.129 2.44347 198.162 2.62755 198.228 2.79247C198.294 2.95846 198.386 3.10423 198.505 3.22978C198.623 3.35534 198.76 3.45429 198.914 3.52346C199.071 3.59262 199.236 3.62986 199.413 3.62986C199.566 3.62986 199.711 3.60432 199.846 3.55006C199.984 3.49792 200.113 3.4245 200.239 3.33193C200.293 3.29363 200.347 3.27554 200.397 3.27979C200.45 3.28405 200.494 3.30533 200.53 3.34151C200.568 3.37981 200.585 3.43089 200.585 3.49579C200.585 3.52452 200.579 3.55431 200.568 3.58304C200.556 3.61177 200.537 3.63731 200.513 3.66284C200.351 3.79265 200.178 3.88948 199.995 3.95545C199.811 4.02142 199.618 4.0544 199.415 4.0544V4.05866V4.05653ZM196.564 2.85418L195.859 1.10173H195.985L195.269 2.85418H195.267H196.564ZM196.718 3.24043H195.108L194.851 3.86926C194.829 3.91715 194.799 3.95226 194.758 3.97779C194.718 4.0012 194.677 4.01504 194.635 4.01504C194.552 4.01504 194.486 3.97779 194.441 3.9065C194.396 3.83521 194.391 3.75754 194.427 3.67774L195.688 0.663356C195.733 0.559082 195.806 0.506945 195.908 0.506945C196.017 0.506945 196.09 0.559082 196.129 0.663356L197.396 3.68732C197.429 3.77031 197.422 3.84586 197.38 3.91395C197.337 3.98205 197.271 4.01504 197.184 4.01504C197.139 4.01504 197.097 4.0012 197.056 3.97673C197.016 3.95119 196.987 3.91715 196.969 3.87033L196.716 3.24149L196.718 3.24043ZM194.034 4.01291C193.991 4.01291 193.954 4.00333 193.92 3.98631C193.885 3.96928 193.856 3.93949 193.832 3.90118L193.062 2.65947C193.035 2.6616 193.008 2.6616 192.979 2.6616H192.405V3.77989C192.405 3.84586 192.383 3.90225 192.341 3.94587C192.296 3.99056 192.24 4.01397 192.173 4.01397C192.106 4.01397 192.05 3.99056 192.007 3.94587C191.963 3.90118 191.938 3.84479 191.938 3.77989V0.737838C191.938 0.668677 191.962 0.612283 192.007 0.569722C192.051 0.525033 192.108 0.503753 192.173 0.503753H192.981C193.206 0.503753 193.405 0.551634 193.579 0.645268C193.754 0.739966 193.889 0.869777 193.986 1.03364C194.082 1.19856 194.132 1.39009 194.132 1.60821C194.132 1.81144 194.085 1.99339 193.986 2.15193C193.889 2.31047 193.754 2.43389 193.579 2.5254L193.531 2.54881L194.218 3.65327C194.272 3.74052 194.279 3.82138 194.241 3.89906C194.203 3.9746 194.135 4.01291 194.04 4.01291H194.034ZM192.402 2.22854H192.977C193.114 2.22854 193.237 2.20194 193.341 2.14874C193.445 2.0966 193.528 2.02318 193.589 1.92848C193.649 1.83378 193.678 1.72738 193.678 1.60715C193.678 1.47521 193.649 1.35923 193.589 1.25708C193.529 1.15494 193.445 1.07726 193.341 1.01874C193.237 0.962348 193.114 0.933619 192.977 0.933619H192.402V2.22854ZM188.644 4.05653C188.453 4.05653 188.269 4.0278 188.096 3.96609C187.922 3.9065 187.772 3.82245 187.642 3.71498C187.514 3.60645 187.42 3.48302 187.36 3.34151C187.331 3.27767 187.331 3.21914 187.362 3.16594C187.393 3.11168 187.447 3.07657 187.521 3.0638C187.575 3.05209 187.627 3.05954 187.679 3.08933C187.731 3.11806 187.772 3.16062 187.799 3.21702C187.837 3.29256 187.894 3.36066 187.977 3.4245C188.06 3.48621 188.159 3.53835 188.275 3.57772C188.393 3.61603 188.514 3.63624 188.644 3.63624C188.788 3.63624 188.921 3.61283 189.041 3.56815C189.163 3.52346 189.259 3.45749 189.335 3.37236C189.41 3.28724 189.447 3.18084 189.447 3.05528C189.447 2.89675 189.385 2.7531 189.26 2.62755C189.137 2.50199 188.932 2.42432 188.647 2.39346C188.276 2.35835 187.984 2.24875 187.771 2.06681C187.558 1.88486 187.451 1.65822 187.451 1.38796C187.451 1.19111 187.506 1.02193 187.617 0.884674C187.728 0.747414 187.878 0.64314 188.069 0.570786C188.259 0.498433 188.471 0.462256 188.703 0.462256C188.885 0.462256 189.045 0.487792 189.181 0.53993C189.316 0.589939 189.436 0.662292 189.538 0.750607C189.64 0.838921 189.727 0.946387 189.803 1.06981C189.846 1.13578 189.863 1.1975 189.855 1.25602C189.848 1.31454 189.818 1.36029 189.768 1.39328C189.711 1.42839 189.65 1.43584 189.584 1.41669C189.518 1.39541 189.468 1.3571 189.437 1.29858C189.389 1.21133 189.331 1.13791 189.261 1.07833C189.192 1.01874 189.112 0.971924 189.02 0.936811C188.927 0.901698 188.819 0.884674 188.693 0.884674C188.473 0.882546 188.287 0.922979 188.136 1.0081C187.987 1.09322 187.911 1.22516 187.911 1.40073C187.911 1.49117 187.935 1.57629 187.98 1.66035C188.027 1.74121 188.112 1.81357 188.238 1.87315C188.361 1.93274 188.541 1.9753 188.774 1.99871C189.131 2.03595 189.408 2.14342 189.608 2.32536C189.808 2.50731 189.906 2.74565 189.906 3.04145C189.906 3.2117 189.871 3.36066 189.8 3.48621C189.731 3.61177 189.635 3.71817 189.518 3.80329C189.401 3.88842 189.265 3.95226 189.113 3.99482C188.962 4.03738 188.806 4.05866 188.643 4.05866L188.644 4.05653ZM185.202 4.0842C184.914 4.0842 184.661 4.03206 184.438 3.92566C184.216 3.81925 184.043 3.67242 183.92 3.48302C183.797 3.29575 183.734 3.07869 183.734 2.83716V0.738902C183.734 0.669741 183.757 0.613347 183.802 0.570786C183.847 0.528225 183.903 0.504817 183.968 0.504817C184.037 0.504817 184.093 0.526097 184.136 0.570786C184.179 0.613347 184.2 0.671869 184.2 0.738902V2.8361C184.2 2.99676 184.242 3.13934 184.328 3.26596C184.413 3.38939 184.531 3.48834 184.682 3.55857C184.833 3.62773 185.006 3.66497 185.2 3.66497C185.394 3.66497 185.556 3.62986 185.701 3.55857C185.846 3.48941 185.961 3.39045 186.042 3.26596C186.125 3.14253 186.165 2.99889 186.165 2.8361V0.738902C186.165 0.669741 186.188 0.613347 186.233 0.570786C186.278 0.528225 186.334 0.504817 186.399 0.504817C186.468 0.504817 186.523 0.526097 186.565 0.570786C186.606 0.613347 186.627 0.671869 186.627 0.738902V2.8361C186.627 3.07763 186.567 3.29469 186.445 3.48196C186.323 3.67136 186.154 3.81819 185.939 3.92459C185.725 4.031 185.477 4.08313 185.199 4.08313H185.201L185.202 4.0842ZM181.219 4.05653C180.957 4.05653 180.714 4.01184 180.496 3.92353C180.278 3.83522 180.089 3.71072 179.933 3.55006C179.777 3.38939 179.654 3.19999 179.567 2.97974C179.48 2.75949 179.437 2.51689 179.437 2.25407C179.437 1.99126 179.482 1.74866 179.567 1.53054C179.654 1.31241 179.776 1.12195 179.933 0.961284C180.091 0.800616 180.278 0.677189 180.496 0.587811C180.714 0.499497 180.957 0.456936 181.219 0.456936C181.482 0.456936 181.723 0.501625 181.941 0.588875C182.158 0.678253 182.345 0.80168 182.504 0.962348C182.662 1.12302 182.785 1.31241 182.871 1.5316C182.958 1.74973 183.001 1.9902 183.001 2.25514C183.001 2.52008 182.958 2.76055 182.871 2.9808C182.784 3.20106 182.662 3.39045 182.504 3.55112C182.345 3.71179 182.158 3.83522 181.941 3.92459C181.724 4.01397 181.484 4.0576 181.219 4.0576V4.05653ZM181.219 3.63518C181.415 3.63518 181.593 3.60007 181.756 3.52878C181.921 3.45961 182.059 3.36066 182.179 3.23617C182.299 3.11274 182.392 2.96484 182.456 2.79885C182.52 2.63074 182.553 2.45092 182.553 2.25514C182.553 2.05936 182.522 1.87954 182.456 1.71142C182.392 1.54331 182.299 1.39753 182.179 1.27411C182.059 1.15068 181.919 1.05385 181.756 0.983628C181.593 0.913402 181.413 0.881482 181.219 0.881482C181.026 0.881482 180.846 0.916594 180.683 0.983628C180.518 1.05279 180.38 1.14962 180.262 1.27411C180.144 1.39753 180.051 1.54331 179.985 1.71142C179.919 1.87954 179.886 2.05936 179.886 2.25514C179.886 2.45092 179.919 2.63074 179.985 2.79885C180.051 2.96697 180.144 3.11274 180.262 3.23617C180.38 3.3596 180.521 3.45855 180.683 3.52878C180.846 3.59794 181.026 3.63518 181.219 3.63518ZM175.419 4.01291C175.354 4.01291 175.297 3.9895 175.253 3.94481C175.21 3.90012 175.185 3.84373 175.185 3.77882V0.737838C175.185 0.668677 175.207 0.612283 175.253 0.569722C175.298 0.525033 175.355 0.503753 175.419 0.503753C175.51 0.503753 175.578 0.546314 175.627 0.629308L177.034 3.44578H176.89L178.259 0.629308C178.307 0.546314 178.377 0.503753 178.467 0.503753C178.533 0.503753 178.589 0.525033 178.633 0.569722C178.678 0.614411 178.701 0.668677 178.701 0.737838V3.77882C178.701 3.84479 178.678 3.90118 178.632 3.94481C178.586 3.98843 178.531 4.01291 178.467 4.01291C178.403 4.01291 178.344 3.9895 178.301 3.94481C178.257 3.90012 178.233 3.84373 178.233 3.77882V1.38583L178.323 1.36242L177.147 3.76073C177.097 3.83841 177.029 3.87671 176.946 3.87671C176.847 3.87671 176.776 3.8299 176.731 3.73732L175.568 1.40605L175.658 1.38477V3.77776C175.658 3.84373 175.634 3.90012 175.59 3.94375C175.545 3.98737 175.489 4.01184 175.424 4.01184H175.419V4.01291ZM172.671 4.05653C172.408 4.05653 172.166 4.01184 171.948 3.92353C171.729 3.83522 171.541 3.71072 171.385 3.55006C171.228 3.38939 171.106 3.19999 171.019 2.97974C170.931 2.75949 170.889 2.51689 170.889 2.25407C170.889 1.99126 170.931 1.74866 171.019 1.53054C171.106 1.31241 171.227 1.12195 171.385 0.961284C171.542 0.800616 171.729 0.677189 171.948 0.587811C172.166 0.499497 172.407 0.456936 172.671 0.456936C172.935 0.456936 173.174 0.501625 173.393 0.588875C173.61 0.678253 173.797 0.80168 173.955 0.962348C174.114 1.12302 174.236 1.31241 174.322 1.5316C174.41 1.74973 174.452 1.9902 174.452 2.25514C174.452 2.52008 174.408 2.76055 174.322 2.9808C174.235 3.20106 174.114 3.39045 173.955 3.55112C173.797 3.71179 173.61 3.83522 173.393 3.92459C173.175 4.01397 172.936 4.0576 172.671 4.0576V4.05653ZM172.671 3.63518C172.867 3.63518 173.045 3.60007 173.207 3.52878C173.372 3.45961 173.511 3.36066 173.633 3.23617C173.753 3.11274 173.846 2.96484 173.91 2.79885C173.973 2.63074 174.006 2.45092 174.006 2.25514C174.006 2.05936 173.973 1.87954 173.91 1.71142C173.846 1.54331 173.753 1.39753 173.633 1.27411C173.513 1.15068 173.372 1.05385 173.207 0.983628C173.045 0.914466 172.865 0.881482 172.671 0.881482C172.477 0.881482 172.298 0.916594 172.135 0.983628C171.97 1.05279 171.832 1.14962 171.713 1.27411C171.595 1.39753 171.503 1.54331 171.437 1.71142C171.371 1.87954 171.338 2.05936 171.338 2.25514C171.338 2.45092 171.371 2.63074 171.437 2.79885C171.503 2.96697 171.595 3.11274 171.713 3.23617C171.832 3.3596 171.973 3.45855 172.135 3.52878C172.298 3.59794 172.477 3.63518 172.671 3.63518ZM167.55 4.01291C167.484 4.01291 167.43 3.9895 167.385 3.94481C167.34 3.90012 167.319 3.84373 167.319 3.77882V0.737838C167.319 0.668677 167.34 0.612283 167.385 0.569722C167.428 0.525033 167.484 0.503753 167.55 0.503753C167.621 0.503753 167.682 0.532481 167.73 0.588875L169.688 3.19467V0.737838C169.688 0.668677 169.711 0.612283 169.756 0.569722C169.8 0.525033 169.857 0.503753 169.922 0.503753C169.991 0.503753 170.045 0.525033 170.088 0.569722C170.13 0.614411 170.151 0.668677 170.151 0.737838V3.77882C170.151 3.84479 170.13 3.90118 170.088 3.94481C170.045 3.9895 169.991 4.01291 169.922 4.01291C169.893 4.01291 169.86 4.00759 169.825 3.99376C169.79 3.97992 169.763 3.96077 169.742 3.93417L167.784 1.32837V3.78095C167.784 3.84692 167.763 3.90331 167.718 3.94694C167.673 3.99163 167.619 4.01504 167.55 4.01504V4.01291ZM164.805 4.05653C164.542 4.05653 164.299 4.01184 164.081 3.92353C163.863 3.83522 163.675 3.71072 163.518 3.55006C163.362 3.38939 163.24 3.19999 163.152 2.97974C163.065 2.75949 163.023 2.51689 163.023 2.25407C163.023 1.99126 163.067 1.74866 163.152 1.53054C163.24 1.31241 163.361 1.12195 163.518 0.961284C163.676 0.800616 163.863 0.677189 164.081 0.587811C164.3 0.499497 164.542 0.456936 164.805 0.456936C165.068 0.456936 165.308 0.501625 165.526 0.588875C165.743 0.678253 165.931 0.80168 166.089 0.962348C166.248 1.12302 166.37 1.31241 166.458 1.5316C166.546 1.74973 166.588 1.9902 166.588 2.25514C166.588 2.52008 166.543 2.76055 166.458 2.9808C166.371 3.20106 166.25 3.39045 166.089 3.55112C165.931 3.71179 165.743 3.83522 165.526 3.92459C165.309 4.01397 165.07 4.0576 164.805 4.0576V4.05653ZM164.805 3.63518C165.001 3.63518 165.178 3.60007 165.341 3.52878C165.504 3.45961 165.644 3.36066 165.765 3.23617C165.885 3.11274 165.977 2.96484 166.041 2.79885C166.105 2.63074 166.138 2.45092 166.138 2.25514C166.138 2.05936 166.105 1.87954 166.041 1.71142C165.977 1.54331 165.885 1.39753 165.765 1.27411C165.644 1.15068 165.504 1.05385 165.341 0.983628C165.178 0.913402 164.998 0.881482 164.805 0.881482C164.611 0.881482 164.431 0.916594 164.269 0.983628C164.106 1.05279 163.965 1.14962 163.847 1.27411C163.729 1.3986 163.636 1.54331 163.57 1.71142C163.505 1.87954 163.472 2.05936 163.472 2.25514C163.472 2.45092 163.505 2.63074 163.57 2.79885C163.636 2.96697 163.729 3.11274 163.847 3.23617C163.965 3.3596 164.107 3.45855 164.269 3.52878C164.431 3.59794 164.611 3.63518 164.805 3.63518ZM161.475 4.01291C161.409 4.01291 161.353 3.9895 161.309 3.94481C161.266 3.90012 161.241 3.84373 161.241 3.77882V0.934683H160.27C160.208 0.934683 160.156 0.913402 160.116 0.875097C160.075 0.834665 160.056 0.782527 160.056 0.720814C160.056 0.6591 160.075 0.606963 160.116 0.56653C160.156 0.526097 160.208 0.506945 160.27 0.506945H162.675C162.738 0.506945 162.788 0.528225 162.829 0.56653C162.869 0.606963 162.888 0.6591 162.888 0.720814C162.888 0.782527 162.869 0.834665 162.829 0.875097C162.788 0.91553 162.738 0.934683 162.675 0.934683H161.71V3.77882C161.71 3.84479 161.686 3.90118 161.641 3.94481C161.597 3.98843 161.54 4.01291 161.475 4.01291ZM158.112 4.0842C157.824 4.0842 157.57 4.03206 157.348 3.92566C157.126 3.81925 156.953 3.67242 156.83 3.48302C156.706 3.29575 156.644 3.07869 156.644 2.83716V0.738902C156.644 0.669741 156.665 0.613347 156.712 0.570786C156.756 0.528225 156.813 0.504817 156.878 0.504817C156.947 0.504817 157.003 0.526097 157.046 0.570786C157.088 0.613347 157.11 0.671869 157.11 0.738902V2.8361C157.11 2.99676 157.152 3.13934 157.237 3.26596C157.323 3.38939 157.441 3.48834 157.592 3.55857C157.743 3.62879 157.916 3.66497 158.11 3.66497C158.304 3.66497 158.466 3.62986 158.611 3.55857C158.756 3.48941 158.871 3.39045 158.952 3.26596C159.035 3.14253 159.075 2.99889 159.075 2.8361V0.738902C159.075 0.669741 159.098 0.613347 159.143 0.570786C159.188 0.528225 159.244 0.504817 159.309 0.504817C159.378 0.504817 159.433 0.526097 159.475 0.570786C159.516 0.613347 159.537 0.671869 159.537 0.738902V2.8361C159.537 3.07763 159.477 3.29469 159.355 3.48196C159.232 3.67136 159.064 3.81819 158.849 3.92459C158.634 4.031 158.387 4.08313 158.109 4.08313H158.111L158.112 4.0842ZM155.407 2.85418L154.701 1.10173H154.826L154.11 2.85418H155.407ZM155.563 3.24043H153.953L153.695 3.86926C153.674 3.91715 153.643 3.95226 153.603 3.97779C153.562 4.0012 153.522 4.01504 153.479 4.01504C153.396 4.01504 153.33 3.97779 153.286 3.9065C153.241 3.83521 153.236 3.75754 153.272 3.67774L154.533 0.663356C154.577 0.559082 154.651 0.506945 154.753 0.506945C154.861 0.506945 154.935 0.559082 154.973 0.663356L156.24 3.68732C156.273 3.77031 156.267 3.84586 156.224 3.91395C156.18 3.98205 156.116 4.01504 156.029 4.01504C155.984 4.01504 155.941 4.0012 155.901 3.97673C155.861 3.95119 155.832 3.91715 155.814 3.87033L155.561 3.24149L155.563 3.24043ZM149.446 4.01291C149.38 4.01291 149.323 3.9895 149.28 3.94481C149.236 3.90012 149.211 3.84373 149.211 3.77882V0.737838C149.211 0.668677 149.235 0.612283 149.28 0.569722C149.324 0.525033 149.381 0.503753 149.446 0.503753H151.475C151.544 0.503753 151.598 0.525033 151.641 0.563338C151.683 0.603771 151.704 0.655908 151.704 0.721878C151.704 0.787847 151.683 0.835729 151.641 0.875097C151.598 0.913402 151.544 0.933619 151.475 0.933619H149.678V2.02424H150.966C151.035 2.02424 151.089 2.04553 151.132 2.08383C151.175 2.12426 151.196 2.1764 151.196 2.23811C151.196 2.29983 151.175 2.35196 151.132 2.3924C151.089 2.43283 151.035 2.45198 150.966 2.45198H149.678V3.7735C149.678 3.83947 149.656 3.89586 149.609 3.93949C149.565 3.98418 149.508 4.00759 149.443 4.00759L149.446 4.01184V4.01291ZM146.979 4.05653C146.716 4.05653 146.474 4.01184 146.256 3.92353C146.037 3.83522 145.849 3.71072 145.693 3.55006C145.536 3.38939 145.414 3.19999 145.327 2.97974C145.239 2.75949 145.197 2.51689 145.197 2.25407C145.197 1.99126 145.242 1.74866 145.327 1.53054C145.414 1.31241 145.535 1.12195 145.693 0.961284C145.85 0.800616 146.037 0.677189 146.256 0.587811C146.474 0.499497 146.716 0.456936 146.979 0.456936C147.242 0.456936 147.482 0.501625 147.701 0.588875C147.918 0.678253 148.105 0.80168 148.263 0.962348C148.422 1.12302 148.544 1.31241 148.633 1.5316C148.72 1.74973 148.762 1.9902 148.762 2.25514C148.762 2.52008 148.718 2.76055 148.633 2.9808C148.545 3.20106 148.424 3.39045 148.263 3.55112C148.105 3.71179 147.918 3.83522 147.701 3.92459C147.484 4.01397 147.244 4.0576 146.979 4.0576V4.05653ZM146.979 3.63518C147.175 3.63518 147.353 3.60007 147.515 3.52878C147.678 3.45961 147.819 3.36066 147.939 3.23617C148.059 3.11274 148.152 2.96484 148.216 2.79885C148.279 2.63074 148.312 2.45092 148.312 2.25514C148.312 2.05936 148.279 1.87954 148.216 1.71142C148.152 1.54331 148.059 1.39753 147.939 1.27411C147.819 1.15068 147.678 1.05385 147.515 0.983628C147.353 0.913402 147.173 0.881482 146.979 0.881482C146.786 0.881482 146.606 0.916594 146.443 0.983628C146.28 1.05279 146.14 1.14962 146.022 1.27411C145.903 1.3986 145.811 1.54331 145.745 1.71142C145.679 1.87954 145.646 2.05936 145.646 2.25514C145.646 2.45092 145.679 2.63074 145.745 2.79885C145.811 2.96697 145.903 3.11274 146.022 3.23617C146.14 3.3596 146.281 3.45855 146.443 3.52878C146.606 3.59794 146.786 3.63518 146.979 3.63518ZM141.131 4.01291C141.065 4.01291 141.009 3.9895 140.965 3.94481C140.922 3.90012 140.897 3.84373 140.897 3.77882V0.737838C140.897 0.668677 140.918 0.612283 140.965 0.569722C141.01 0.525033 141.066 0.503753 141.131 0.503753H143.16C143.23 0.503753 143.284 0.525033 143.326 0.563338C143.369 0.603771 143.388 0.655908 143.388 0.721878C143.388 0.787847 143.367 0.835729 143.326 0.875097C143.284 0.913402 143.23 0.933619 143.16 0.933619H141.363V2.02424H142.652C142.721 2.02424 142.775 2.04553 142.818 2.08383C142.86 2.12426 142.879 2.1764 142.879 2.23811C142.879 2.29983 142.858 2.35196 142.818 2.3924C142.775 2.43283 142.721 2.45198 142.652 2.45198H141.363V3.57559H143.16C143.23 3.57559 143.284 3.59475 143.326 3.63411C143.369 3.67348 143.388 3.72349 143.388 3.78733C143.388 3.85118 143.367 3.90544 143.326 3.94587C143.284 3.98631 143.23 4.00546 143.16 4.00546H141.131V4.01291ZM140.156 4.01291C140.113 4.01291 140.076 4.00333 140.042 3.98631C140.007 3.96928 139.978 3.93949 139.954 3.90118L139.184 2.65947C139.158 2.6616 139.13 2.6616 139.101 2.6616H138.527V3.77989C138.527 3.84586 138.505 3.90225 138.463 3.94587C138.418 3.99056 138.362 4.01397 138.295 4.01397C138.228 4.01397 138.172 3.99056 138.129 3.94587C138.085 3.90118 138.061 3.84479 138.061 3.77989V0.737838C138.061 0.668677 138.084 0.612283 138.129 0.569722C138.173 0.525033 138.23 0.503753 138.295 0.503753H139.103C139.328 0.503753 139.527 0.551634 139.701 0.645268C139.876 0.739966 140.011 0.869777 140.108 1.03364C140.205 1.19856 140.255 1.39009 140.255 1.60821C140.255 1.81144 140.207 1.99339 140.108 2.15193C140.011 2.31047 139.876 2.43389 139.701 2.5254L139.653 2.54881L140.34 3.65327C140.394 3.74052 140.401 3.82138 140.363 3.89906C140.325 3.9746 140.257 4.01291 140.162 4.01291H140.156ZM138.525 2.22854H139.1C139.237 2.22854 139.36 2.20194 139.464 2.14874C139.568 2.0966 139.651 2.02318 139.712 1.92848C139.771 1.83378 139.801 1.72738 139.801 1.60715C139.801 1.47521 139.773 1.35923 139.712 1.25708C139.652 1.15494 139.568 1.07726 139.464 1.01874C139.36 0.962348 139.237 0.933619 139.1 0.933619H138.525V2.22854ZM135.731 4.0842C135.443 4.0842 135.19 4.03206 134.967 3.92566C134.745 3.81925 134.573 3.67242 134.449 3.48302C134.326 3.29575 134.263 3.07869 134.263 2.83716V0.738902C134.263 0.669741 134.286 0.613347 134.331 0.570786C134.376 0.528225 134.432 0.504817 134.497 0.504817C134.566 0.504817 134.623 0.526097 134.665 0.570786C134.708 0.613347 134.729 0.671869 134.729 0.738902V2.8361C134.729 2.99676 134.772 3.13934 134.857 3.26596C134.942 3.38939 135.06 3.48834 135.211 3.55857C135.362 3.62879 135.536 3.66497 135.729 3.66497C135.923 3.66497 136.086 3.62986 136.23 3.55857C136.375 3.48941 136.49 3.39045 136.571 3.26596C136.654 3.14253 136.694 2.99889 136.694 2.8361V0.738902C136.694 0.669741 136.718 0.613347 136.762 0.570786C136.807 0.528225 136.863 0.504817 136.928 0.504817C136.998 0.504817 137.052 0.526097 137.094 0.570786C137.135 0.613347 137.156 0.671869 137.156 0.738902V2.8361C137.156 3.07763 137.096 3.29469 136.974 3.48196C136.852 3.67136 136.684 3.81819 136.469 3.92459C136.254 4.031 136.006 4.08313 135.728 4.08313H135.73L135.731 4.0842ZM132.331 4.01291C132.265 4.01291 132.208 3.9895 132.165 3.94481C132.121 3.90012 132.097 3.84373 132.097 3.77882V0.934683H131.125C131.063 0.934683 131.011 0.913402 130.971 0.875097C130.93 0.834665 130.911 0.782527 130.911 0.720814C130.911 0.6591 130.93 0.606963 130.971 0.56653C131.011 0.526097 131.063 0.506945 131.125 0.506945H133.53C133.594 0.506945 133.644 0.528225 133.684 0.56653C133.725 0.606963 133.744 0.6591 133.744 0.720814C133.744 0.782527 133.725 0.834665 133.684 0.875097C133.644 0.91553 133.594 0.934683 133.53 0.934683H132.565V3.77882C132.565 3.84479 132.541 3.90118 132.497 3.94481C132.452 3.98843 132.396 4.01291 132.331 4.01291ZM128.967 4.0842C128.679 4.0842 128.426 4.03206 128.203 3.92566C127.981 3.81925 127.809 3.67242 127.685 3.48302C127.562 3.29575 127.499 3.07869 127.499 2.83716V0.738902C127.499 0.669741 127.522 0.613347 127.567 0.570786C127.612 0.528225 127.668 0.504817 127.733 0.504817C127.802 0.504817 127.859 0.526097 127.901 0.570786C127.944 0.613347 127.967 0.671869 127.967 0.738902V2.8361C127.967 2.99676 128.01 3.13934 128.095 3.26596C128.18 3.38939 128.298 3.48834 128.449 3.55857C128.6 3.62879 128.774 3.66497 128.967 3.66497C129.161 3.66497 129.324 3.62986 129.468 3.55857C129.613 3.48941 129.728 3.39045 129.809 3.26596C129.892 3.14253 129.932 2.99889 129.932 2.8361V0.738902C129.932 0.669741 129.956 0.613347 130.001 0.570786C130.045 0.528225 130.102 0.504817 130.167 0.504817C130.236 0.504817 130.29 0.526097 130.332 0.570786C130.373 0.613347 130.394 0.671869 130.394 0.738902V2.8361C130.394 3.07763 130.335 3.29469 130.212 3.48196C130.09 3.67136 129.922 3.81819 129.707 3.92459C129.492 4.031 129.244 4.08313 128.966 4.08313L128.967 4.0842ZM124.641 4.01291C124.575 4.01291 124.519 3.9895 124.475 3.94481C124.431 3.90012 124.407 3.84373 124.407 3.77882V0.737838C124.407 0.668677 124.43 0.612283 124.475 0.569722C124.52 0.525033 124.576 0.503753 124.641 0.503753H126.67C126.739 0.503753 126.794 0.525033 126.836 0.563338C126.879 0.603771 126.9 0.655908 126.9 0.721878C126.9 0.787847 126.879 0.835729 126.836 0.875097C126.794 0.913402 126.739 0.933619 126.67 0.933619H124.873V2.02424H126.164C126.233 2.02424 126.287 2.04553 126.33 2.08383C126.372 2.12426 126.393 2.1764 126.393 2.23811C126.393 2.29983 126.372 2.35196 126.33 2.3924C126.287 2.43283 126.233 2.45198 126.164 2.45198H124.873V3.7735C124.873 3.83947 124.852 3.89586 124.805 3.93949C124.76 3.98418 124.704 4.00759 124.639 4.00759L124.641 4.01184V4.01291ZM120.465 4.01291C120.399 4.01291 120.342 3.9895 120.299 3.94481C120.255 3.90012 120.231 3.84373 120.231 3.77882V0.737838C120.231 0.668677 120.252 0.612283 120.299 0.569722C120.343 0.525033 120.4 0.503753 120.465 0.503753H122.494C122.563 0.503753 122.617 0.525033 122.66 0.563338C122.702 0.603771 122.722 0.655908 122.722 0.721878C122.722 0.787847 122.7 0.835729 122.66 0.875097C122.617 0.913402 122.563 0.933619 122.494 0.933619H120.697V2.02424H121.985C122.054 2.02424 122.109 2.04553 122.151 2.08383C122.194 2.12426 122.213 2.1764 122.213 2.23811C122.213 2.29983 122.192 2.35196 122.151 2.3924C122.109 2.43283 122.054 2.45198 121.985 2.45198H120.697V3.57559H122.494C122.563 3.57559 122.617 3.59475 122.66 3.63411C122.702 3.67348 122.722 3.72349 122.722 3.78733C122.722 3.85118 122.7 3.90544 122.66 3.94587C122.617 3.98631 122.563 4.00546 122.494 4.00546H120.465V4.01291ZM116.553 4.01291C116.487 4.01291 116.431 3.9895 116.387 3.94481C116.344 3.90012 116.319 3.84373 116.319 3.77882V0.737838C116.319 0.668677 116.341 0.612283 116.387 0.569722C116.432 0.525033 116.488 0.503753 116.553 0.503753C116.623 0.503753 116.679 0.525033 116.721 0.569722C116.766 0.614411 116.787 0.668677 116.787 0.737838V2.02637H118.871V0.737838C118.871 0.668677 118.892 0.612283 118.939 0.569722C118.984 0.525033 119.04 0.503753 119.105 0.503753C119.174 0.503753 119.228 0.525033 119.271 0.569722C119.313 0.614411 119.335 0.668677 119.335 0.737838V3.77882C119.335 3.84479 119.313 3.90118 119.271 3.94481C119.228 3.9895 119.174 4.01291 119.105 4.01291C119.039 4.01291 118.983 3.9895 118.939 3.94481C118.895 3.90012 118.871 3.84373 118.871 3.77882V2.44028H116.787V3.77882C116.787 3.84479 116.766 3.90118 116.721 3.94481C116.677 3.9895 116.623 4.01291 116.553 4.01291ZM114.389 4.01291C114.323 4.01291 114.267 3.9895 114.223 3.94481C114.18 3.90012 114.155 3.84373 114.155 3.77882V0.934683H113.184C113.122 0.934683 113.07 0.913402 113.029 0.875097C112.989 0.834665 112.97 0.782527 112.97 0.720814C112.97 0.6591 112.989 0.606963 113.029 0.56653C113.07 0.526097 113.122 0.506945 113.184 0.506945H115.588C115.652 0.506945 115.702 0.528225 115.743 0.56653C115.783 0.606963 115.802 0.6591 115.802 0.720814C115.802 0.782527 115.783 0.834665 115.743 0.875097C115.702 0.91553 115.652 0.934683 115.588 0.934683H114.623V3.77882C114.623 3.84479 114.6 3.90118 114.555 3.94481C114.51 3.98843 114.454 4.01291 114.389 4.01291ZM108.535 4.01291C108.469 4.01291 108.415 3.9895 108.37 3.94481C108.325 3.90012 108.304 3.84373 108.304 3.77882V0.737838C108.304 0.668677 108.325 0.612283 108.37 0.569722C108.413 0.525033 108.469 0.503753 108.535 0.503753C108.606 0.503753 108.667 0.532481 108.715 0.588875L110.672 3.19467V0.737838C110.672 0.668677 110.696 0.612283 110.741 0.569722C110.785 0.525033 110.842 0.503753 110.907 0.503753C110.976 0.503753 111.03 0.525033 111.073 0.569722C111.115 0.614411 111.136 0.668677 111.136 0.737838V3.77882C111.136 3.84479 111.115 3.90118 111.073 3.94481C111.03 3.9895 110.976 4.01291 110.907 4.01291C110.878 4.01291 110.845 4.00759 110.81 3.99376C110.775 3.97992 110.748 3.96077 110.727 3.93417L108.769 1.32837V3.78095C108.769 3.84692 108.748 3.90331 108.703 3.94694C108.658 3.99163 108.602 4.01504 108.535 4.01504V4.01291ZM107.175 4.01291C107.109 4.01291 107.053 3.9895 107.009 3.94481C106.965 3.90012 106.941 3.84373 106.941 3.77882V0.737838C106.941 0.668677 106.962 0.612283 107.009 0.569722C107.054 0.525033 107.11 0.503753 107.175 0.503753C107.244 0.503753 107.301 0.525033 107.343 0.569722C107.386 0.614411 107.409 0.668677 107.409 0.737838V3.77882C107.409 3.84479 107.388 3.90118 107.343 3.94481C107.298 3.9895 107.242 4.01291 107.175 4.01291ZM104.426 3.63518C104.621 3.63518 104.799 3.60007 104.962 3.52878C105.127 3.45961 105.265 3.36066 105.385 3.23617C105.506 3.11168 105.598 2.96484 105.662 2.79885C105.726 2.63074 105.759 2.45092 105.759 2.25514C105.759 2.05936 105.726 1.87954 105.662 1.71142C105.598 1.54331 105.506 1.39753 105.385 1.27411C105.265 1.15068 105.125 1.05385 104.962 0.983628C104.799 0.913402 104.619 0.881482 104.426 0.881482C104.232 0.881482 104.052 0.916594 103.889 0.983628C103.724 1.05279 103.586 1.14962 103.468 1.27411C103.35 1.3986 103.257 1.54331 103.191 1.71142C103.125 1.87954 103.092 2.05936 103.092 2.25514C103.092 2.45092 103.125 2.63074 103.191 2.79885C103.257 2.96697 103.35 3.11274 103.468 3.23617C103.586 3.3596 103.728 3.45855 103.889 3.52878C104.052 3.59794 104.232 3.63518 104.426 3.63518ZM1.5014 43.1509C1.30987 43.1509 1.13005 43.1222 0.957683 43.0616C0.785311 43.0009 0.634219 42.9179 0.506536 42.8115C0.378853 42.7051 0.286283 42.5817 0.225633 42.4402C0.196905 42.3785 0.196905 42.3199 0.227761 42.2657C0.258618 42.2114 0.312883 42.1763 0.386301 42.1635C0.440566 42.1518 0.492704 42.1593 0.544841 42.1869C0.596978 42.2157 0.635283 42.2582 0.662948 42.3146C0.700189 42.388 0.757646 42.4583 0.838512 42.52C0.919378 42.5817 1.01833 42.6317 1.13431 42.6711C1.25029 42.7104 1.37265 42.7296 1.50034 42.7296C1.64398 42.7296 1.77485 42.7062 1.89509 42.6615C2.01532 42.6168 2.11321 42.5508 2.1877 42.4657C2.26111 42.3806 2.29942 42.2763 2.29942 42.1508C2.29942 41.9922 2.2377 41.8507 2.11321 41.7273C1.98979 41.6017 1.78656 41.524 1.50353 41.4953C1.13431 41.4602 0.843832 41.3517 0.633155 41.1687C0.422478 40.9867 0.316075 40.7622 0.316075 40.4951C0.316075 40.2983 0.370341 40.1312 0.480999 39.994C0.591658 39.8588 0.740621 39.7546 0.930018 39.6822C1.11941 39.6109 1.33009 39.5758 1.56098 39.5758C1.74293 39.5758 1.90147 39.6014 2.0366 39.6514C2.17174 39.7014 2.28984 39.7716 2.39305 39.862C2.49413 39.9514 2.58245 40.0578 2.65587 40.1791C2.69843 40.2451 2.71439 40.3068 2.708 40.3653C2.70056 40.4238 2.67076 40.4696 2.62075 40.5026C2.56436 40.5377 2.50265 40.5451 2.43668 40.5239C2.37071 40.5026 2.32283 40.4643 2.28984 40.4079C2.24196 40.3206 2.18344 40.2493 2.11534 40.1898C2.04618 40.1302 1.96638 40.0834 1.87381 40.0482C1.78124 40.0131 1.67271 39.9961 1.54715 39.9961C1.3269 39.994 1.14282 40.0344 0.993859 40.1195C0.844896 40.2047 0.771478 40.3345 0.771478 40.51C0.771478 40.5994 0.794887 40.6845 0.84064 40.7675C0.887457 40.8484 0.972579 40.9207 1.09601 40.9803C1.21943 41.0399 1.39819 41.0814 1.63015 41.1038C1.98447 41.141 2.26111 41.2474 2.45796 41.4283C2.6548 41.6081 2.75376 41.8443 2.75376 42.1401C2.75376 42.3104 2.71864 42.4572 2.64948 42.5817C2.58032 42.7072 2.48456 42.8115 2.36858 42.8966C2.25047 42.9818 2.11747 43.0456 1.96638 43.086C1.81529 43.1286 1.661 43.1478 1.50034 43.1478V43.1499L1.5014 43.1509ZM71.1301 43.1063C71.0642 43.1063 71.0099 43.085 70.9652 43.0403C70.9205 42.9956 70.8992 42.9392 70.8992 42.8743V39.8525C70.8992 39.7844 70.9205 39.729 70.9652 39.6844C71.0099 39.6418 71.0642 39.6205 71.1301 39.6205H73.1475C73.2167 39.6205 73.271 39.6418 73.3135 39.6801C73.354 39.7205 73.3752 39.7727 73.3752 39.8386C73.3752 39.9003 73.354 39.9525 73.3135 39.9919C73.271 40.0302 73.2167 40.0504 73.1475 40.0504H71.3621V41.1357H72.6432C72.7113 41.1357 72.7666 41.1548 72.8081 41.1953C72.8496 41.2357 72.8698 41.2857 72.8698 41.3485C72.8698 41.4113 72.8485 41.4623 72.8081 41.5028C72.7655 41.5432 72.7113 41.5624 72.6432 41.5624H71.3621V42.6785H73.1475C73.2167 42.6785 73.271 42.6977 73.3135 42.737C73.354 42.7753 73.3752 42.8264 73.3752 42.8903C73.3752 42.9541 73.354 43.0084 73.3135 43.0488C73.271 43.0892 73.2167 43.1084 73.1475 43.1084H71.1301V43.1063ZM68.9925 43.1509C68.7531 43.1509 68.5265 43.1041 68.3158 43.0158C68.1072 42.9254 67.9232 42.7988 67.7668 42.637C67.6103 42.4742 67.488 42.2848 67.4007 42.0678C67.3114 41.8507 67.2688 41.6156 67.2688 41.3613C67.2688 41.1069 67.3135 40.8771 67.4007 40.6633C67.488 40.4483 67.6093 40.2589 67.7668 40.0961C67.9232 39.9333 68.1051 39.8078 68.3147 39.7152C68.5233 39.6226 68.7478 39.5758 68.9936 39.5758C69.2234 39.5758 69.4192 39.6045 69.5852 39.6652C69.7501 39.7248 69.9161 39.8216 70.0821 39.9589C70.1055 39.9759 70.1246 39.9961 70.1385 40.0153C70.1523 40.0344 70.1619 40.0536 70.1651 40.0738C70.1693 40.0929 70.1704 40.1163 70.1704 40.1429C70.1704 40.1993 70.1512 40.2451 70.1108 40.2845C70.0704 40.3217 70.0214 40.343 69.9661 40.3462C69.9108 40.3494 69.8544 40.3323 69.8012 40.2898C69.6905 40.1951 69.5767 40.1217 69.4607 40.0717C69.3426 40.0216 69.1883 39.9961 68.9946 39.9961C68.8191 39.9961 68.6542 40.0312 68.4999 40.1025C68.3456 40.1738 68.2094 40.2728 68.0913 40.3962C67.9732 40.5217 67.8827 40.6675 67.8168 40.8314C67.7508 40.9963 67.7178 41.1719 67.7178 41.3591C67.7178 41.5464 67.7508 41.7262 67.8168 41.8933C67.8827 42.0603 67.9732 42.2029 68.0913 42.3284C68.2094 42.454 68.3445 42.5508 68.4999 42.6211C68.6552 42.6913 68.8191 42.7253 68.9946 42.7253C69.1457 42.7253 69.2904 42.6998 69.4256 42.6455C69.5607 42.5934 69.6905 42.5221 69.8161 42.4285C69.8703 42.3902 69.9225 42.3721 69.9746 42.3785C70.0267 42.3827 70.0714 42.404 70.1065 42.4402C70.1438 42.4774 70.1608 42.5296 70.1608 42.5945C70.1608 42.6232 70.1555 42.653 70.1438 42.6817C70.1321 42.7104 70.1151 42.736 70.0895 42.7594C69.9288 42.8871 69.7565 42.9839 69.5735 43.0499C69.3915 43.1158 69.1979 43.1488 68.9946 43.1488L68.9925 43.1509ZM66.6942 43.1063C66.6517 43.1063 66.6144 43.0988 66.5804 43.0797C66.5452 43.0626 66.5165 43.0328 66.4931 42.9945L65.727 41.7603C65.7004 41.7624 65.6728 41.7624 65.6462 41.7624H65.0737V42.8732C65.0737 42.9392 65.0524 42.9935 65.0099 43.0392C64.9673 43.0839 64.9109 43.1052 64.8417 43.1052C64.7758 43.1052 64.7215 43.0839 64.6768 43.0392C64.6321 42.9945 64.6109 42.9381 64.6109 42.8732V39.8514C64.6109 39.7833 64.6321 39.728 64.6768 39.6833C64.7215 39.6407 64.7779 39.6194 64.8417 39.6194H65.6462C65.8685 39.6194 66.0675 39.6663 66.2399 39.761C66.4122 39.8535 66.5474 39.9833 66.6442 40.1483C66.741 40.3132 66.7889 40.5026 66.7889 40.7186C66.7889 40.9218 66.741 41.1016 66.6442 41.258C66.5474 41.4166 66.4122 41.5389 66.2399 41.6273L66.192 41.6507L66.873 42.7477C66.9272 42.8349 66.9347 42.9158 66.8964 42.9913C66.8581 43.0669 66.79 43.1052 66.6953 43.1052V43.1073L66.6942 43.1063ZM65.0726 41.3347H65.6451C65.7823 41.3347 65.9026 41.3091 66.0069 41.257C66.1111 41.2048 66.1931 41.1314 66.2526 41.0389C66.3122 40.9463 66.342 40.8399 66.342 40.7196C66.342 40.5877 66.3133 40.4717 66.2526 40.3717C66.1931 40.2706 66.1111 40.1919 66.0069 40.1355C65.9026 40.0791 65.7823 40.0504 65.6451 40.0504H65.0726V41.3347ZM62.2966 43.1786C62.0104 43.1786 61.7593 43.1265 61.5379 43.0201C61.3166 42.9137 61.1453 42.7668 61.0219 42.5785C60.8985 42.3912 60.8357 42.1763 60.8357 41.9358V39.8525C60.8357 39.7844 60.857 39.729 60.9038 39.6844C60.9485 39.6418 61.0049 39.6205 61.0687 39.6205C61.1368 39.6205 61.1921 39.6418 61.2368 39.6844C61.2794 39.7269 61.3007 39.7833 61.3007 39.8525V41.9358C61.3007 42.0965 61.3432 42.238 61.4284 42.3614C61.5135 42.4849 61.6316 42.5817 61.7806 42.6519C61.9316 42.7211 62.104 42.7562 62.2955 42.7562C62.4871 42.7562 62.6499 42.7211 62.7924 42.6519C62.9371 42.5828 63.0499 42.4859 63.1308 42.3614C63.2117 42.2369 63.2532 42.0965 63.2532 41.9358V39.8525C63.2532 39.7844 63.2744 39.729 63.3213 39.6844C63.3659 39.6418 63.4223 39.6205 63.4862 39.6205C63.5543 39.6205 63.6096 39.6418 63.6511 39.6844C63.6915 39.7269 63.7128 39.7833 63.7128 39.8525V41.9358C63.7128 42.1752 63.6532 42.3902 63.5309 42.5785C63.4106 42.7658 63.2425 42.9137 63.0297 43.0201C62.8148 43.1265 62.569 43.1786 62.2923 43.1786H62.2977H62.2966ZM58.3384 43.1509C58.0777 43.1509 57.8373 43.1063 57.6191 43.019C57.4021 42.9318 57.2148 42.8083 57.0584 42.6498C56.902 42.4912 56.7818 42.3018 56.6945 42.0827C56.6094 41.8645 56.5647 41.6241 56.5647 41.3634C56.5647 41.1027 56.6094 40.8622 56.6945 40.6452C56.7818 40.4281 56.902 40.2387 57.0584 40.0802C57.2148 39.9216 57.401 39.7982 57.6191 39.711C57.8362 39.6237 58.0756 39.579 58.3384 39.579C58.6012 39.579 58.8396 39.6237 59.0545 39.711C59.2695 39.7982 59.4567 39.9216 59.6131 40.0802C59.7717 40.2387 59.8919 40.4281 59.9792 40.6452C60.0664 40.8622 60.109 41.1016 60.109 41.3634C60.109 41.6251 60.0664 41.8667 59.9792 42.0827C59.8919 42.3008 59.7706 42.4912 59.6131 42.6498C59.4546 42.8083 59.2684 42.9318 59.0545 43.019C58.8375 43.1084 58.6002 43.1509 58.3384 43.1509ZM58.3384 42.7317C58.5321 42.7317 58.7098 42.6966 58.8726 42.6274C59.0354 42.5583 59.1758 42.4615 59.2939 42.337C59.412 42.2125 59.5046 42.0678 59.5684 41.9018C59.6323 41.7358 59.6631 41.556 59.6631 41.3623C59.6631 41.1687 59.6323 40.9888 59.5684 40.8229C59.5046 40.6569 59.412 40.5111 59.2939 40.3877C59.1737 40.2642 59.0343 40.1674 58.8726 40.0993C58.7108 40.0312 58.5321 39.9972 58.3384 39.9972C58.1448 39.9972 57.9671 40.0323 57.8043 40.0993C57.6415 40.1674 57.5021 40.2642 57.384 40.3877C57.2659 40.5111 57.1754 40.6569 57.1095 40.8229C57.0435 40.9888 57.0105 41.1687 57.0105 41.3623C57.0105 41.556 57.0435 41.7358 57.1095 41.9018C57.1754 42.0678 57.2659 42.2135 57.384 42.337C57.5021 42.4604 57.6415 42.5572 57.8043 42.6274C57.9671 42.6966 58.1448 42.7317 58.3384 42.7317ZM54.7644 43.1509C54.5728 43.1509 54.393 43.1222 54.2206 43.0616C54.0483 43.002 53.8972 42.9179 53.7695 42.8115C53.6418 42.7051 53.5471 42.5817 53.4875 42.4402C53.4588 42.3785 53.4588 42.3199 53.4897 42.2657C53.5205 42.2114 53.5748 42.1763 53.6482 42.1635C53.7025 42.1518 53.7546 42.1593 53.8067 42.1869C53.8589 42.2157 53.8972 42.2582 53.9249 42.3146C53.9621 42.388 54.0196 42.4583 54.1004 42.52C54.1813 42.5817 54.2802 42.6317 54.3962 42.6711C54.5122 42.7104 54.6346 42.7296 54.7622 42.7296C54.9059 42.7296 55.0368 42.7062 55.157 42.6615C55.2772 42.6168 55.3741 42.5508 55.4496 42.4657C55.523 42.3806 55.5613 42.2763 55.5613 42.1508C55.5613 41.9922 55.4996 41.8507 55.3751 41.7273C55.2517 41.6017 55.0485 41.524 54.7654 41.4953C54.3962 41.4602 54.1057 41.3517 53.8951 41.1687C53.6844 40.9867 53.578 40.7622 53.578 40.4951C53.578 40.2983 53.6322 40.1312 53.7429 39.994C53.8536 39.8588 54.0025 39.7546 54.1919 39.6822C54.3813 39.6099 54.5909 39.5758 54.8229 39.5758C55.0048 39.5758 55.1634 39.6014 55.2985 39.6514C55.4336 39.7014 55.5517 39.7716 55.655 39.862C55.756 39.9514 55.8443 40.0578 55.9178 40.1791C55.9603 40.2451 55.9774 40.3068 55.9699 40.3653C55.9625 40.4238 55.9327 40.4696 55.8827 40.5026C55.8263 40.5377 55.7645 40.5451 55.6986 40.5239C55.6326 40.5026 55.5847 40.4643 55.5517 40.4079C55.5039 40.3206 55.4453 40.2493 55.3772 40.1898C55.3092 40.1302 55.2283 40.0834 55.1357 40.0482C55.0431 40.0131 54.9346 39.9961 54.8112 39.9961C54.5909 39.994 54.4069 40.0344 54.2579 40.1195C54.1089 40.2047 54.0355 40.3345 54.0355 40.51C54.0355 40.5994 54.0589 40.6845 54.1047 40.7675C54.1515 40.8484 54.2366 40.9207 54.36 40.9803C54.4835 41.0399 54.6622 41.0814 54.8942 41.1038C55.2485 41.141 55.5251 41.2474 55.722 41.4283C55.9188 41.6081 56.0199 41.8443 56.0199 42.1401C56.0199 42.3104 55.9848 42.4572 55.9156 42.5817C55.8465 42.7072 55.7507 42.8115 55.6347 42.8966C55.5166 42.9818 55.3836 43.0456 55.2325 43.086C55.0814 43.1286 54.9272 43.1478 54.7665 43.1478L54.7644 43.1499V43.1509ZM48.8739 43.1063C48.808 43.1063 48.7537 43.085 48.7111 43.0403C48.6686 42.9956 48.6452 42.9392 48.6452 42.8743V39.8525C48.6452 39.7844 48.6664 39.729 48.7111 39.6844C48.7537 39.6418 48.808 39.6205 48.8739 39.6205C48.9452 39.6205 49.0059 39.6492 49.0516 39.7056L50.9977 42.2944V39.8535C50.9977 39.7854 51.019 39.7301 51.0658 39.6854C51.1105 39.6429 51.1669 39.6216 51.2307 39.6216C51.2988 39.6216 51.3542 39.6429 51.3957 39.6854C51.4361 39.7301 51.4574 39.7844 51.4574 39.8535V42.8754C51.4574 42.9413 51.4361 42.9956 51.3957 43.0413C51.3531 43.086 51.2988 43.1073 51.2307 43.1073C51.202 43.1073 51.169 43.102 51.1339 43.0882C51.0988 43.0743 51.0722 43.0552 51.0509 43.0286L49.1048 40.4398V42.8775C49.1048 42.9435 49.0835 42.9977 49.041 43.0435C48.9963 43.0882 48.942 43.1094 48.8729 43.1094L48.875 43.1073L48.8739 43.1063ZM45.7531 43.1063C45.6872 43.1063 45.6329 43.085 45.5882 43.0403C45.5435 42.9956 45.5222 42.9392 45.5222 42.8743V39.8525C45.5222 39.7844 45.5435 39.729 45.5882 39.6844C45.6329 39.6418 45.6872 39.6205 45.7531 39.6205H47.7705C47.8386 39.6205 47.894 39.6418 47.9355 39.6801C47.978 39.7205 47.9972 39.7727 47.9972 39.8386C47.9972 39.9003 47.9759 39.9525 47.9355 39.9919C47.895 40.0302 47.8386 40.0504 47.7705 40.0504H45.9851V41.1357H47.2662C47.3343 41.1357 47.3896 41.1548 47.4322 41.1953C47.4747 41.2357 47.4939 41.2857 47.4939 41.3485C47.4939 41.4113 47.4726 41.4623 47.4322 41.5028C47.3896 41.5432 47.3353 41.5624 47.2662 41.5624H45.9851V42.6785H47.7705C47.8386 42.6785 47.894 42.6977 47.9355 42.737C47.978 42.7753 47.9972 42.8264 47.9972 42.8903C47.9972 42.9541 47.9759 43.0084 47.9355 43.0488C47.895 43.0892 47.8386 43.1084 47.7705 43.1084H45.7531V43.1063ZM42.9728 43.1063C42.9069 43.1063 42.8526 43.085 42.8079 43.0403C42.7632 42.9956 42.7398 42.9392 42.7398 42.8743V39.8525C42.7398 39.7833 42.7611 39.729 42.8079 39.6844C42.8526 39.6418 42.9069 39.6205 42.9728 39.6205H43.8645C44.0869 39.6205 44.2858 39.6684 44.4582 39.7673C44.6306 39.8663 44.7657 40.0014 44.8626 40.1759C44.9594 40.3504 45.0073 40.5494 45.0073 40.776C45.0073 41.0027 44.9594 41.1857 44.8626 41.3559C44.7657 41.5262 44.6306 41.6581 44.4582 41.7549C44.2858 41.8496 44.0869 41.8986 43.8645 41.8986H43.2048V42.8754C43.2048 42.9413 43.1835 42.9977 43.1388 43.0413C43.0963 43.086 43.0399 43.1073 42.9707 43.1073H42.9728V43.1063ZM43.2059 41.4677H43.8656C44.0028 41.4677 44.1231 41.4389 44.2273 41.3783C44.3316 41.3176 44.4135 41.2368 44.4731 41.1325C44.5327 41.0282 44.5625 40.9101 44.5625 40.775C44.5625 40.6313 44.5316 40.5058 44.4731 40.3972C44.4135 40.2887 44.3316 40.2015 44.2273 40.1398C44.1231 40.078 44.0028 40.0451 43.8656 40.0451H43.2059V41.4677ZM40.2415 43.1509C39.9808 43.1509 39.7403 43.1063 39.5233 43.019C39.3051 42.9318 39.1189 42.8083 38.9625 42.6498C38.8061 42.4912 38.6859 42.3018 38.5986 42.0827C38.5114 41.8635 38.4688 41.6241 38.4688 41.3634C38.4688 41.1027 38.5114 40.8622 38.5986 40.6452C38.6859 40.4281 38.8061 40.2387 38.9625 40.0802C39.1189 39.9216 39.3051 39.7982 39.5233 39.711C39.7403 39.6237 39.9797 39.579 40.2415 39.579C40.5032 39.579 40.7426 39.6237 40.9576 39.711C41.1746 39.7982 41.3598 39.9216 41.5183 40.0802C41.6769 40.2387 41.7971 40.4281 41.8843 40.6452C41.9695 40.8622 42.0142 41.1016 42.0142 41.3634C42.0142 41.6251 41.9716 41.8667 41.8843 42.0827C41.7971 42.3008 41.6758 42.4912 41.5183 42.6498C41.3598 42.8083 41.1736 42.9318 40.9576 43.019C40.7426 43.1084 40.5032 43.1509 40.2415 43.1509ZM40.2415 42.7317C40.4351 42.7317 40.6128 42.6966 40.7756 42.6274C40.9384 42.5583 41.0778 42.4615 41.197 42.337C41.3151 42.2135 41.4077 42.0678 41.4715 41.9018C41.5353 41.7358 41.5662 41.556 41.5662 41.3623C41.5662 41.1687 41.5353 40.9888 41.4715 40.8229C41.4077 40.6569 41.3172 40.5111 41.197 40.3877C41.0767 40.2642 40.9374 40.1674 40.7756 40.0993C40.6139 40.0312 40.4351 39.9972 40.2415 39.9972C40.0478 39.9972 39.8701 40.0323 39.7073 40.0993C39.5446 40.1674 39.4052 40.2642 39.2871 40.3877C39.1689 40.5111 39.0785 40.6569 39.0125 40.8229C38.9466 40.9888 38.9136 41.1687 38.9136 41.3623C38.9136 41.556 38.9466 41.7358 39.0125 41.9018C39.0785 42.0678 39.1689 42.2135 39.2871 42.337C39.4052 42.4604 39.5446 42.5572 39.7073 42.6274C39.8701 42.6966 40.0478 42.7317 40.2415 42.7317ZM35.1757 43.435C35.0927 43.435 35.0288 43.4021 34.9863 43.334C34.9437 43.2659 34.9384 43.1924 34.9703 43.1137L36.3131 39.7535C36.3301 39.7131 36.3599 39.6801 36.3982 39.6546C36.4365 39.6311 36.4791 39.6173 36.5238 39.6173C36.6015 39.6173 36.6632 39.6503 36.71 39.7141C36.7568 39.778 36.7621 39.8535 36.7291 39.9387L35.3842 43.2988C35.3672 43.3467 35.3374 43.3797 35.297 43.401C35.2565 43.4223 35.2161 43.4318 35.1746 43.4318V43.434L35.1757 43.435ZM32.0006 43.1041C31.9346 43.1041 31.8804 43.0828 31.8357 43.0382C31.791 42.9935 31.7676 42.9371 31.7676 42.8722V40.0482H30.8025C30.7408 40.0482 30.6887 40.0291 30.6493 39.9887C30.6089 39.9482 30.5897 39.8982 30.5897 39.8344C30.5897 39.7705 30.6089 39.7205 30.6493 39.6801C30.6897 39.6397 30.7397 39.6205 30.8025 39.6205H33.1913C33.253 39.6205 33.3051 39.6418 33.3455 39.6801C33.386 39.7205 33.4051 39.7705 33.4051 39.8344C33.4051 39.8982 33.386 39.9482 33.3455 39.9887C33.3051 40.0291 33.2551 40.0482 33.1913 40.0482H32.2315V42.8722C32.2315 42.9381 32.2102 42.9924 32.1634 43.0382C32.1187 43.0828 32.0645 43.1041 31.9985 43.1041H32.0006ZM29.1841 43.1488C28.9926 43.1488 28.8128 43.1201 28.6404 43.0594C28.4681 42.9999 28.317 42.9158 28.1893 42.8094C28.0616 42.703 27.969 42.5796 27.9084 42.438C27.8796 42.3763 27.8796 42.3178 27.9105 42.2635C27.9414 42.2093 27.9956 42.1742 28.069 42.1614C28.1233 42.1497 28.1754 42.1571 28.2276 42.1848C28.2797 42.2135 28.318 42.2561 28.3457 42.3125C28.3829 42.3859 28.4404 42.4561 28.5213 42.5178C28.6021 42.5796 28.7011 42.6296 28.8171 42.6689C28.933 42.7083 29.0554 42.7275 29.1831 42.7275C29.3267 42.7275 29.4576 42.7041 29.5778 42.6594C29.6981 42.6147 29.796 42.5487 29.8704 42.4636C29.9449 42.3785 29.9811 42.2742 29.9811 42.1486C29.9811 41.9901 29.9194 41.8486 29.7949 41.7252C29.6715 41.5996 29.4682 41.5219 29.1852 41.4932C28.816 41.4581 28.5255 41.3495 28.3148 41.1665C28.1042 40.9846 27.9978 40.7601 27.9978 40.493C27.9978 40.2962 28.052 40.1291 28.1627 39.9919C28.2733 39.8567 28.4223 39.7524 28.6117 39.6801C28.8011 39.6077 29.0118 39.5737 29.2427 39.5737C29.4246 39.5737 29.5831 39.5992 29.7183 39.6492C29.8534 39.6992 29.9715 39.7695 30.0747 39.8599C30.1758 39.9493 30.2641 40.0557 30.3375 40.177C30.3801 40.243 30.3961 40.3047 30.3897 40.3632C30.3822 40.4217 30.3524 40.4675 30.3024 40.5005C30.246 40.5356 30.1843 40.543 30.1184 40.5217C30.0524 40.5005 30.0045 40.4622 29.9715 40.4058C29.9236 40.3185 29.8651 40.2472 29.797 40.1876C29.7289 40.128 29.6481 40.0812 29.5555 40.0461C29.4629 40.011 29.3544 39.994 29.2288 39.994C29.0086 39.9919 28.8245 40.0323 28.6755 40.1174C28.5266 40.2025 28.4532 40.3323 28.4532 40.5079C28.4532 40.5973 28.4766 40.6824 28.5223 40.7654C28.5691 40.8463 28.6543 40.9186 28.7777 40.9782C28.9011 41.0378 29.0799 41.0793 29.3118 41.1016C29.6661 41.1389 29.9428 41.2453 30.1396 41.4262C30.3365 41.606 30.4354 41.8422 30.4354 42.138C30.4354 42.3082 30.4003 42.4551 30.329 42.5796C30.2599 42.7051 30.1662 42.8094 30.0481 42.8945C29.93 42.9796 29.797 43.0435 29.6459 43.0839C29.4948 43.1265 29.3406 43.1456 29.1799 43.1456L29.1841 43.1478V43.1488ZM25.4271 41.9539H26.7156L26.0155 40.2132H26.1389L25.4271 41.9539ZM26.871 42.337H25.2707L25.0153 42.9615C24.994 43.0094 24.9653 43.0445 24.9248 43.068C24.8844 43.0914 24.844 43.1052 24.8014 43.1052C24.7184 43.1052 24.6546 43.068 24.6099 42.9988C24.5652 42.9275 24.562 42.852 24.5961 42.77L25.8495 39.7759C25.8942 39.6716 25.9676 39.6194 26.0676 39.6194C26.174 39.6194 26.2474 39.6716 26.2857 39.7759L27.5455 42.7796C27.5785 42.8626 27.5721 42.9381 27.5296 43.0041C27.487 43.0722 27.4211 43.1052 27.3359 43.1052C27.2912 43.1052 27.2487 43.0914 27.2082 43.0669C27.1678 43.0424 27.1391 43.0073 27.121 42.9626L26.8699 42.338L26.871 42.337ZM22.6361 43.1041C22.5702 43.1041 22.5159 43.0828 22.4712 43.0382C22.4265 42.9935 22.4031 42.9371 22.4031 42.8722V39.8503C22.4031 39.7822 22.4244 39.7269 22.4712 39.6822C22.5159 39.6397 22.5702 39.6184 22.6361 39.6184H24.6535C24.7216 39.6184 24.7769 39.6397 24.8184 39.678C24.861 39.7184 24.8802 39.7705 24.8802 39.8365C24.8802 39.8982 24.8589 39.9504 24.8184 39.9897C24.778 40.028 24.7216 40.0482 24.6535 40.0482H22.8681V41.1336H24.1492C24.2173 41.1336 24.2726 41.1527 24.3141 41.1931C24.3567 41.2336 24.3758 41.2836 24.3758 41.3464C24.3758 41.4091 24.3545 41.4602 24.3141 41.5006C24.2737 41.5411 24.2173 41.5602 24.1492 41.5602H22.8681V42.8722C22.8681 42.9381 22.8468 42.9924 22.8 43.0382C22.7553 43.0828 22.701 43.1041 22.6351 43.1041H22.6361ZM19.2312 43.435C19.1483 43.435 19.0844 43.4021 19.0419 43.334C18.9993 43.2659 18.994 43.1924 19.0259 43.1137L20.3687 39.7535C20.3857 39.7131 20.4155 39.6801 20.4538 39.6546C20.4921 39.6311 20.5347 39.6173 20.5794 39.6173C20.657 39.6173 20.7188 39.6503 20.7656 39.7141C20.8124 39.778 20.8177 39.8535 20.7869 39.9387L19.4419 43.2988C19.4249 43.3467 19.3951 43.3797 19.3547 43.401C19.3142 43.4223 19.2738 43.4318 19.2323 43.4318L19.2302 43.434L19.2312 43.435ZM15.0837 43.1041C15.0177 43.1041 14.9634 43.0828 14.9188 43.0382C14.8741 42.9935 14.8528 42.9371 14.8528 42.8722V39.8503C14.8528 39.7822 14.8741 39.7269 14.9188 39.6822C14.9634 39.6397 15.0177 39.6184 15.0837 39.6184H17.1011C17.1692 39.6184 17.2245 39.6397 17.2671 39.678C17.3096 39.7184 17.3288 39.7705 17.3288 39.8365C17.3288 39.8982 17.3075 39.9504 17.2671 39.9897C17.2245 40.028 17.1702 40.0482 17.1011 40.0482H15.3156V41.1336H16.5967C16.6648 41.1336 16.7202 41.1527 16.7616 41.1931C16.8042 41.2336 16.8234 41.2836 16.8234 41.3464C16.8234 41.4091 16.8021 41.4602 16.7616 41.5006C16.7212 41.5411 16.6648 41.5602 16.5967 41.5602H15.3156V42.6764H17.1011C17.1692 42.6764 17.2245 42.6955 17.2671 42.7349C17.3096 42.7743 17.3288 42.8243 17.3288 42.8881C17.3288 42.952 17.3075 43.0062 17.2671 43.0467C17.2245 43.0871 17.1702 43.1063 17.1011 43.1063H15.0837V43.1041ZM12.2129 43.1041C12.147 43.1041 12.0927 43.0828 12.0501 43.0382C12.0076 42.9935 11.9863 42.9371 11.9863 42.8722V39.8503C11.9863 39.7844 12.0076 39.728 12.0544 39.6854C12.0991 39.6407 12.1534 39.6173 12.2151 39.6173C12.281 39.6173 12.3353 39.6407 12.38 39.6854C12.4247 39.7301 12.4481 39.7844 12.4481 39.8503V42.6402H14.0633C14.1293 42.6402 14.1835 42.6615 14.2282 42.7083C14.2729 42.753 14.2963 42.8073 14.2963 42.8732C14.2963 42.9392 14.2729 42.9935 14.2282 43.0392C14.1835 43.0839 14.1293 43.1052 14.0633 43.1052H12.214L12.2129 43.1041ZM9.4369 43.1041C9.37093 43.1041 9.31666 43.0828 9.27197 43.0382C9.22729 42.9935 9.20388 42.9371 9.20388 42.8722V39.8503C9.20388 39.7812 9.22516 39.7269 9.27197 39.6822C9.31666 39.6397 9.37093 39.6184 9.4369 39.6184H10.3307C10.5531 39.6184 10.752 39.6663 10.9244 39.7652C11.0968 39.8642 11.2319 39.9993 11.3287 40.1738C11.4256 40.3483 11.4734 40.5473 11.4734 40.7739C11.4734 41.0005 11.4256 41.1836 11.3287 41.3538C11.2319 41.524 11.0968 41.656 10.9244 41.7528C10.752 41.8475 10.5531 41.8965 10.3307 41.8965H9.66886V42.8732C9.66886 42.9392 9.64757 42.9956 9.60501 43.0392C9.56245 43.0828 9.50606 43.1052 9.4369 43.1052V43.1041ZM9.66886 41.4666H10.3307C10.4679 41.4666 10.5882 41.4379 10.6924 41.3772C10.7967 41.3166 10.8787 41.2357 10.9382 41.1314C10.9978 41.0271 11.0276 40.909 11.0276 40.7739C11.0276 40.6303 10.9989 40.5047 10.9382 40.3962C10.8787 40.2877 10.7967 40.2004 10.6924 40.1387C10.5882 40.077 10.4679 40.044 10.3307 40.044H9.66886V41.4666ZM5.05312 43.1041C4.98715 43.1041 4.93288 43.0828 4.88819 43.0382C4.8435 42.9935 4.82009 42.9371 4.82009 42.8722V39.8503C4.82009 39.7822 4.84137 39.7269 4.88819 39.6822C4.93288 39.6397 4.98715 39.6184 5.05312 39.6184C5.14249 39.6184 5.20953 39.6588 5.25847 39.7439L6.65554 42.5413H6.51189L7.87385 39.7439C7.92173 39.6609 7.98982 39.6184 8.0792 39.6184C8.14517 39.6184 8.19944 39.6397 8.24413 39.6822C8.28882 39.7269 8.31222 39.7812 8.31222 39.8503V42.8722C8.31222 42.9381 8.28882 42.9924 8.24306 43.0382C8.19625 43.0828 8.14198 43.1041 8.08027 43.1041C8.0143 43.1041 7.96003 43.0828 7.91534 43.0382C7.87065 42.9935 7.84724 42.9371 7.84724 42.8722V40.493L7.93662 40.4717L6.7662 42.8551C6.71619 42.9328 6.64809 42.9711 6.56509 42.9711C6.46614 42.9711 6.39485 42.9243 6.35016 42.8317L5.19357 40.5143L5.28294 40.493V42.8722C5.28294 42.9381 5.25954 42.9924 5.21485 43.0382C5.17016 43.0828 5.11589 43.1041 5.04992 43.1041H5.05418H5.05312Z" fill="white"/>
<path d="M48.5462 0.459109H43.4835V35.1421H48.5462V31.7563C50.904 33.861 54.0089 35.1421 57.4063 35.1421C62.2487 35.1421 66.4941 32.565 68.851 28.7175C67.7731 27.2449 66.7655 25.6999 65.7632 24.1635L65.5025 23.7634C64.6034 27.3864 61.324 30.0773 57.4063 30.0773C52.831 30.0773 49.1229 26.3479 49.1229 21.7566C49.1229 17.1654 52.831 13.4572 57.4063 13.4572H57.435V13.4434C62.0976 13.4338 65.0545 17.9676 68.1019 22.6398C72.1143 28.7898 76.2523 35.1325 84.8369 35.1325V35.1367H84.8656C92.2244 35.1367 98.2138 29.142 98.2138 21.762C98.2138 14.3819 92.2244 8.37971 84.8656 8.37971C79.6561 8.37971 75.133 11.3622 72.9166 15.7055C73.5124 16.5802 74.0945 17.4739 74.6786 18.3698C75.2936 19.3115 75.9129 20.2617 76.5449 21.1693C76.8503 16.8557 80.4541 13.4445 84.8656 13.4445C89.277 13.4445 93.149 17.1739 93.149 21.7651C93.149 26.3564 89.4409 30.0624 84.8656 30.0624H84.8369V30.0667C78.9773 30.0667 75.6075 24.8998 72.3399 19.8914C68.5307 14.051 64.8321 8.3829 57.4329 8.39674V8.3829H57.4042C54.0067 8.3829 50.9019 9.66186 48.544 11.7622V0.45698L48.5462 0.459109Z" fill="url(#paint0_linear_116_2)"/>
<path fill-rule="evenodd" clip-rule="evenodd" d="M157.02 35.9976C160.234 35.9976 163.455 34.8431 165.762 32.8055L162.693 28.7686C161.331 30.0528 159.186 30.9349 156.998 30.9349C152.588 30.9349 148.656 27.4204 148.656 22.5376C148.656 17.6953 152.565 14.1403 156.998 14.1403C159.164 14.1403 161.287 14.9799 162.607 16.2407L165.446 12.0155C163.158 10.1428 160.09 9.07559 156.998 9.07559C149.79 9.07559 143.595 14.8767 143.595 22.5376C143.595 30.2199 149.812 35.9997 157.019 35.9997L157.021 35.9976H157.02ZM5.27021 35.1442H0.20758V21.198H0.221413C0.521468 14.0893 6.3885 8.3861 13.5558 8.3861C15.2252 8.3861 16.8255 8.69148 18.2992 9.25222C17.8832 9.59271 17.4852 9.95235 17.1032 10.3311C16.1499 11.2824 15.3135 12.3528 14.6198 13.5158C14.2719 13.4711 13.9154 13.4477 13.5558 13.4477C8.98047 13.4477 5.27234 17.1771 5.27234 21.7683V32.249H5.27021V35.1442ZM28.5415 35.1442C35.9003 35.1442 41.8876 29.1495 41.8876 21.7694C41.8876 14.3893 35.8982 8.38716 28.5415 8.38716C21.1848 8.38716 15.138 14.3978 15.138 21.7694C15.138 29.141 21.1487 35.1442 28.5415 35.1442ZM28.5415 30.0667C23.93 30.0667 20.1995 26.3585 20.1995 21.7694C20.1995 17.1792 23.929 13.4487 28.5415 13.4487C33.1541 13.4487 36.8249 17.1781 36.8249 21.7694C36.8249 26.3607 33.1168 30.0667 28.5415 30.0667ZM196.157 35.1442H191.095V21.198H191.109C191.409 14.0893 197.276 8.3861 204.443 8.3861C206.112 8.3861 207.713 8.69148 209.186 9.25222C208.77 9.59271 208.372 9.95235 207.99 10.3311C207.037 11.2824 206.201 12.3528 205.507 13.5158C205.159 13.4711 204.803 13.4477 204.443 13.4477C199.868 13.4477 196.159 17.1771 196.159 21.7683V32.249H196.157V35.1442ZM105.239 35.1442H100.176V21.198H100.19C100.49 14.0893 106.357 8.3861 113.524 8.3861C115.194 8.3861 116.794 8.69148 118.268 9.25222C117.852 9.59271 117.454 9.95235 117.072 10.3311C116.118 11.2824 115.282 12.3528 114.588 13.5158C114.24 13.4711 113.884 13.4477 113.524 13.4477C108.949 13.4477 105.241 17.1771 105.241 21.7683V32.249H105.239V35.1442ZM141.834 21.198H141.82C141.52 14.0893 135.653 8.3861 128.485 8.3861C121.318 8.3861 115.082 14.3968 115.082 21.7683C115.082 29.1484 121.093 35.1431 128.485 35.1431C131.611 35.1431 134.492 34.06 136.769 32.249V35.1431H141.831V21.197H141.834V21.198ZM128.488 30.0677C123.876 30.0677 120.146 26.3596 120.146 21.7705C120.146 17.1813 123.875 13.4498 128.488 13.4498C133.1 13.4498 136.771 17.1792 136.771 21.7705C136.771 26.3617 133.063 30.0677 128.488 30.0677ZM189.141 21.5332C189.141 15.0852 184.558 9.16177 177.313 9.16177C170.069 9.16177 164.569 14.8352 164.569 22.56C164.569 30.2848 170.242 35.9209 177.4 35.9209C180.592 35.9209 184.6 34.7452 187.355 31.7329L183.935 28.3398C181.92 30.2412 179.437 30.9722 177.508 30.9722C173.706 30.9722 170.58 28.3834 169.72 24.5965H188.554V24.5752L188.634 24.5965C188.949 23.7144 189.142 22.7526 189.142 21.5343L189.14 21.5321L189.141 21.5332ZM177.337 14.0946C181.331 14.0946 183.698 16.9707 184.208 20.6064H169.657C170.409 16.7408 173.501 14.0946 177.339 14.0946H177.337Z" fill="white"/>
<defs>

<defs>
  <linearGradient id="animatedGradient" gradientUnits="userSpaceOnUse" x1="0%" y1="0%" x2="100%" y2="100%">
  <stop offset="0%" stop-color="#FF5733"/>
  <stop offset="50%" stop-color="#33FF57"/>
  <stop offset="100%" stop-color="#3357FF"/>
  <animateTransform 
    attributeName="gradientTransform" 
    type="rotate" 
    from="0 50 50" 
    to="360 50 50" 
    dur="5s" 
    repeatCount="indefinite" />
  </linearGradient>
</defs>

<linearGradient id="paint0_linear_116_2" gradientUnits="userSpaceOnUse" x1="0%" y1="0%" x2="100%" y2="100%">
  <stop offset="0%" stop-color="#FC00FF"/>
  <stop offset="50%" stop-color="#00D1DA"/>
  <stop offset="100%" stop-color="#00D1DA"/>
  <animateTransform 
    attributeName="gradientTransform" 
    type="rotate" 
    from="0 50 50" 
    to="360 50 50" 
    dur="5s" 
    repeatCount="indefinite" />
</linearGradient>
</defs>
</svg>
